<svg version="1.1" xmlns="http://www.w3.org/2000/svg" viewBox="0 0 755.6998376416323 282.5824047304486"
  width="755.6998376416323" height="282.5824047304486">
  <!-- svg-source:excalidraw -->

  <defs>
    <style class="style-fonts">
      @font-face {
        font-family: "Virgil";
        src: url("https://excalidraw.com/Virgil.woff2");
      }

      @font-face {
        font-family: "Cascadia";
        src: url("https://excalidraw.com/Cascadia.woff2");
      }
    </style>

  </defs>
  <rect x="0" y="0" width="755.6998376416323" height="282.5824047304486" fill="#ffffff"></rect>
  <g stroke-linecap="round">
    <g transform="translate(740.7637526044232 143.78445468931795) rotate(0 -363.4172687897569 -1.0454523297885316)"
      fill-rule="evenodd">
      <path
        d="M0 0 L-5.23 20.69 L-7.42 26.88 L-11.54 33.43 L-17.06 37.26 L-25.91 40.3 L-43.77 43.52 L-51.91 45.79 L-70.08 60.62 L-80.59 68.13 L-93.06 75.27 L-108.57 81.54 L-126.99 87.17 L-149.32 92.44 L-173.27 96.67 L-209.67 99.89 L-236.16 99.45 L-249.38 97.3 L-274.15 89.51 L-282.77 88.53 L-291.45 89.67 L-303.57 93.37 L-316.68 98.86 L-341.92 113.34 L-362.97 123.3 L-374.23 127.19 L-385.35 128.74 L-395.9 125.4 L-405.24 120.04 L-417.82 109.32 L-427.2 102.69 L-437.53 97.26 L-446.82 95.37 L-457.71 96.06 L-473.53 99.64 L-490.25 104.7 L-517.72 115.36 L-535.89 120.97 L-554.21 124.78 L-568.6 124.18 L-582.85 121.05 L-618.16 110.26 L-648.63 97.79 L-685.78 88.16 L-698.58 83.88 L-709.17 77.84 L-720.3 67.22 L-725.15 60.81 L-728.61 54.1 L-730.34 46.97 L-730.76 39.32 L-729.47 23.83 L-726.48 8.29 L-721.39 -5.58 L-714.9 -14.85 L-705.44 -22.58 L-690.29 -31.89 L-673.53 -39.61 L-658.81 -43.07 L-644.74 -43.93 L-618.11 -40.09 L-605.86 -41.05 L-593.16 -45.13 L-577.99 -54.56 L-562.93 -66.24 L-544.42 -84.72 L-534.41 -91.95 L-530.62 -93.32 L-520.23 -94.55 L-488.46 -94.33 L-479.69 -95.03 L-474.85 -96.97 L-470.16 -102.69 L-465.77 -105.34 L-458.28 -107.72 L-430.03 -113.5 L-413.83 -114.99 L-398.12 -113.74 L-389.91 -110.91 L-373.49 -102.63 L-366.21 -100.07 L-359.87 -99.63 L-354.22 -100.47 L-328.68 -108.42 L-298.87 -100.11 L-292.32 -100.93 L-285.31 -107.88 L-273.8 -124.29 L-270.78 -126.29 L-260.59 -129.75 L-247.26 -130.72 L-230.64 -127.1 L-213.95 -120.95 L-200.23 -113.22 L-189.88 -105.19 L-187.22 -101.64 L-183.53 -92.92 L-180.15 -91.91 L-172.03 -91.77 L-169.93 -90.71 L-170.65 -88 L-175.99 -80.6 L-177.17 -77.84 L-174.79 -75.7 L-168.45 -75.04 L-150.68 -75.52 L-144.06 -74 L-137.74 -69.94 L-124.68 -58.35 L-117.45 -54.49 L-109.57 -53.43 L-83.35 -55.58 L-64.21 -55.05 L-54.3 -53.98 L-44.42 -51.54 L-33.9 -47.09 L-12.78 -34.69 L-5.09 -28.79 L-0.51 -23.48 L1.85 -18.29 L3.64 -9.26 L3.27 -2.52 L1.81 1.78"
        stroke="none" stroke-width="0" fill="#ffffff" fill-rule="evenodd"></path>
      <path
        d="M0 0 C-1.24 4.48, -4.57 20.67, -7.42 26.88 C-10.26 33.09, -12.36 34.67, -17.06 37.26 C-21.75 39.86, -29.79 41.03, -35.59 42.45 C-41.4 43.87, -46.16 42.76, -51.91 45.79 C-57.66 48.82, -63.22 55.71, -70.08 60.62 C-76.94 65.53, -83.58 70.84, -93.06 75.27 C-102.55 79.69, -113.62 83.6, -126.99 87.17 C-140.36 90.73, -157.74 94.5, -173.27 96.67 C-188.79 98.84, -207.47 100.08, -220.16 100.18 C-232.85 100.29, -240.39 99.08, -249.38 97.3 C-258.38 95.52, -267.14 90.78, -274.15 89.51 C-281.16 88.24, -284.36 88.11, -291.45 89.67 C-298.53 91.22, -308.27 94.91, -316.68 98.86 C-325.09 102.8, -334.2 109.27, -341.92 113.34 C-349.63 117.42, -355.73 120.74, -362.97 123.3 C-370.21 125.87, -378.3 129.28, -385.35 128.74 C-392.39 128.2, -399.82 123.28, -405.24 120.04 C-410.65 116.8, -412.44 113.11, -417.82 109.32 C-423.2 105.52, -430.88 99.47, -437.53 97.26 C-444.18 95.05, -448.93 94.82, -457.71 96.06 C-466.5 97.3, -480.25 101.48, -490.25 104.7 C-500.25 107.91, -507.06 112.02, -517.72 115.36 C-528.38 118.71, -543.35 123.83, -554.21 124.78 C-565.06 125.73, -572.19 123.47, -582.85 121.05 C-593.51 118.63, -607.2 114.14, -618.16 110.26 C-629.12 106.39, -637.36 101.48, -648.63 97.79 C-659.9 94.11, -675.69 91.49, -685.78 88.16 C-695.87 84.84, -702.03 83.52, -709.17 77.84 C-716.31 72.16, -725.23 63.11, -728.61 54.1 C-731.99 45.1, -730.67 33.78, -729.47 23.83 C-728.27 13.88, -725.39 2.15, -721.39 -5.58 C-717.38 -13.32, -713.41 -16.91, -705.44 -22.58 C-697.46 -28.25, -683.65 -36.05, -673.53 -39.61 C-663.42 -43.17, -653.98 -43.85, -644.74 -43.93 C-635.51 -44.01, -626.71 -39.89, -618.11 -40.09 C-609.52 -40.29, -602.36 -40.77, -593.16 -45.13 C-583.97 -49.49, -571.97 -58.88, -562.93 -66.24 C-553.9 -73.6, -546.06 -84.55, -538.94 -89.27 C-531.83 -93.99, -530.11 -93.59, -520.23 -94.55 C-510.35 -95.51, -488.76 -93.23, -479.69 -95.03 C-470.61 -96.83, -474.05 -102.27, -465.77 -105.34 C-457.49 -108.42, -441.3 -112.1, -430.03 -113.5 C-418.75 -114.9, -408.75 -115.98, -398.12 -113.74 C-387.48 -111.5, -375.19 -101.82, -366.21 -100.07 C-357.23 -98.31, -350.52 -101.83, -344.26 -103.23 C-338.01 -104.62, -334.97 -108.62, -328.68 -108.42 C-322.39 -108.22, -312.59 -103.25, -306.53 -102 C-300.47 -100.76, -296.91 -98.57, -292.32 -100.93 C-287.74 -103.3, -282.62 -111.98, -279.03 -116.21 C-275.44 -120.44, -276.08 -123.88, -270.78 -126.29 C-265.49 -128.71, -256.73 -131.62, -247.26 -130.72 C-237.79 -129.83, -223.52 -125.2, -213.95 -120.95 C-204.39 -116.69, -194.95 -109.86, -189.88 -105.19 C-184.81 -100.52, -186.85 -95.34, -183.53 -92.92 C-180.2 -90.51, -170.99 -93.22, -169.93 -90.71 C-168.87 -88.19, -177.42 -80.46, -177.17 -77.84 C-176.92 -75.23, -173.97 -75.68, -168.45 -75.04 C-162.93 -74.4, -152.56 -77.43, -144.06 -74 C-135.56 -70.58, -127.57 -57.56, -117.45 -54.49 C-107.33 -51.42, -95.52 -56.07, -83.35 -55.58 C-71.18 -55.09, -57.47 -56, -44.42 -51.54 C-31.38 -47.07, -13.1 -35.84, -5.09 -28.79 C2.92 -21.74, 2.5 -14.35, 3.64 -9.26 C4.79 -4.16, 2.11 -0.06, 1.81 1.78 M0 0 C-1.24 4.48, -4.57 20.67, -7.42 26.88 C-10.26 33.09, -12.36 34.67, -17.06 37.26 C-21.75 39.86, -29.79 41.03, -35.59 42.45 C-41.4 43.87, -46.16 42.76, -51.91 45.79 C-57.66 48.82, -63.22 55.71, -70.08 60.62 C-76.94 65.53, -83.58 70.84, -93.06 75.27 C-102.55 79.69, -113.62 83.6, -126.99 87.17 C-140.36 90.73, -157.74 94.5, -173.27 96.67 C-188.79 98.84, -207.47 100.08, -220.16 100.18 C-232.85 100.29, -240.39 99.08, -249.38 97.3 C-258.38 95.52, -267.14 90.78, -274.15 89.51 C-281.16 88.24, -284.36 88.11, -291.45 89.67 C-298.53 91.22, -308.27 94.91, -316.68 98.86 C-325.09 102.8, -334.2 109.27, -341.92 113.34 C-349.63 117.42, -355.73 120.74, -362.97 123.3 C-370.21 125.87, -378.3 129.28, -385.35 128.74 C-392.39 128.2, -399.82 123.28, -405.24 120.04 C-410.65 116.8, -412.44 113.11, -417.82 109.32 C-423.2 105.52, -430.88 99.47, -437.53 97.26 C-444.18 95.05, -448.93 94.82, -457.71 96.06 C-466.5 97.3, -480.25 101.48, -490.25 104.7 C-500.25 107.91, -507.06 112.02, -517.72 115.36 C-528.38 118.71, -543.35 123.83, -554.21 124.78 C-565.06 125.73, -572.19 123.47, -582.85 121.05 C-593.51 118.63, -607.2 114.14, -618.16 110.26 C-629.12 106.39, -637.36 101.48, -648.63 97.79 C-659.9 94.11, -675.69 91.49, -685.78 88.16 C-695.87 84.84, -702.03 83.52, -709.17 77.84 C-716.31 72.16, -725.23 63.11, -728.61 54.1 C-731.99 45.1, -730.67 33.78, -729.47 23.83 C-728.27 13.88, -725.39 2.15, -721.39 -5.58 C-717.38 -13.32, -713.41 -16.91, -705.44 -22.58 C-697.46 -28.25, -683.65 -36.05, -673.53 -39.61 C-663.42 -43.17, -653.98 -43.85, -644.74 -43.93 C-635.51 -44.01, -626.71 -39.89, -618.11 -40.09 C-609.52 -40.29, -602.36 -40.77, -593.16 -45.13 C-583.97 -49.49, -571.97 -58.88, -562.93 -66.24 C-553.9 -73.6, -546.06 -84.55, -538.94 -89.27 C-531.83 -93.99, -530.11 -93.59, -520.23 -94.55 C-510.35 -95.51, -488.76 -93.23, -479.69 -95.03 C-470.61 -96.83, -474.05 -102.27, -465.77 -105.34 C-457.49 -108.42, -441.3 -112.1, -430.03 -113.5 C-418.75 -114.9, -408.75 -115.98, -398.12 -113.74 C-387.48 -111.5, -375.19 -101.82, -366.21 -100.07 C-357.23 -98.31, -350.52 -101.83, -344.26 -103.23 C-338.01 -104.62, -334.97 -108.62, -328.68 -108.42 C-322.39 -108.22, -312.59 -103.25, -306.53 -102 C-300.47 -100.76, -296.91 -98.57, -292.32 -100.93 C-287.74 -103.3, -282.62 -111.98, -279.03 -116.21 C-275.44 -120.44, -276.08 -123.88, -270.78 -126.29 C-265.49 -128.71, -256.73 -131.62, -247.26 -130.72 C-237.79 -129.83, -223.52 -125.2, -213.95 -120.95 C-204.39 -116.69, -194.95 -109.86, -189.88 -105.19 C-184.81 -100.52, -186.85 -95.34, -183.53 -92.92 C-180.2 -90.51, -170.99 -93.22, -169.93 -90.71 C-168.87 -88.19, -177.42 -80.46, -177.17 -77.84 C-176.92 -75.23, -173.97 -75.68, -168.45 -75.04 C-162.93 -74.4, -152.56 -77.43, -144.06 -74 C-135.56 -70.58, -127.57 -57.56, -117.45 -54.49 C-107.33 -51.42, -95.52 -56.07, -83.35 -55.58 C-71.18 -55.09, -57.47 -56, -44.42 -51.54 C-31.38 -47.07, -13.1 -35.84, -5.09 -28.79 C2.92 -21.74, 2.5 -14.35, 3.64 -9.26 C4.79 -4.16, 2.11 -0.06, 1.81 1.78"
        stroke="#1e1e1e" stroke-width="2" fill="none"></path>
    </g>
  </g>
  <mask></mask>
  <g stroke-linecap="round">
    <g transform="translate(743.757657743623 132.06910549099894) rotate(0 -365.3887808743618 -13.797520459568887)"
      fill-rule="evenodd">
      <path
        d="M0 0 L-3.15 9.35 L-8.78 20.44 L-17.42 29.65 L-22.73 33.13 L-28.61 34.45 L-35.41 32.12 L-50.77 22.04 L-57.78 19.57 L-63.99 20.75 L-69.77 24.07 L-79.82 32.05 L-104.83 55.57 L-111.58 60.57 L-118.95 63.29 L-127.29 62.4 L-145.91 55.36 L-154.86 53.5 L-171.3 55.58 L-186.85 61.33 L-193.98 65.89 L-207.64 77.21 L-215.57 80.92 L-225.55 82.66 L-236.91 83.16 L-247.72 82.22 L-256.05 79.61 L-260.46 74.31 L-263.77 58.94 L-267.14 52.85 L-273.2 48.68 L-280.69 45.5 L-288.75 43.54 L-296.52 43.05 L-304.23 44.73 L-325.9 55.46 L-336.04 59.66 L-339.61 61.99 L-353.96 76.06 L-360.5 80.26 L-378.86 86.87 L-388.9 88.99 L-397.71 89.4 L-404.83 87.45 L-422.52 75.04 L-445.37 61.33 L-447.48 58.08 L-448.41 52.08 L-450.59 50.23 L-461.69 49.42 L-474.09 51.54 L-482.05 56.68 L-499.76 73.12 L-511.3 82.22 L-524.89 89.44 L-539.38 93.97 L-554.31 93.97 L-568.1 90.71 L-578.95 84.75 L-587.03 76.35 L-589.28 70.74 L-591.44 57.94 L-593.56 53.5 L-597.11 51.31 L-601.48 50.6 L-611.19 51.54 L-632.08 59.37 L-650.36 55.46 L-663.9 57.21 L-677.12 60.68 L-688.49 68.7 L-692.79 70.47 L-705.28 71.78 L-711.92 71.18 L-717.6 69.17 L-722.32 65.4 L-726.49 60.19 L-731.96 47.62 L-732.72 40.53 L-732.29 32.65 L-729.35 17.59 L-725.06 5.92 L-717.6 -4.6 L-705.19 -15.82 L-689.53 -25.49 L-671.37 -31.94 L-651.66 -35.29 L-641.68 -34.72 L-621.23 -31.02 L-611.19 -31.37 L-601.34 -34.34 L-591.6 -38.96 L-572.67 -50.95 L-564.06 -58.61 L-547.44 -76.11 L-537.42 -82.29 L-524.65 -84.98 L-495.68 -85.23 L-483.88 -86.21 L-476.31 -89 L-466.53 -96.29 L-459.08 -99.26 L-434.11 -103.92 L-419.91 -105.26 L-406.85 -105.14 L-395.19 -102.44 L-373.59 -93.24 L-363.76 -90.78 L-354.91 -91.66 L-339.18 -97.71 L-331.12 -99.26 L-322.35 -97.82 L-304.44 -92 L-296.52 -92.08 L-290.19 -96.53 L-279.6 -111.41 L-273.02 -116.89 L-264.73 -119.91 L-255.39 -121.66 L-245.57 -122.02 L-235.81 -120.81 L-225.48 -117.39 L-214.55 -112.04 L-196.64 -100.57 L-192.08 -95.6 L-188.36 -86.14 L-186.19 -82.94 L-182.51 -81.78 L-174.52 -82.5 L-172.48 -81.64 L-173.76 -78.69 L-180.23 -70.35 L-179.66 -67.28 L-174.13 -66.24 L-155.46 -66.37 L-146.37 -64.66 L-138.58 -60.03 L-123.48 -47.21 L-115.69 -43.12 L-107.65 -42.38 L-82.39 -46.39 L-63.34 -45.41 L-44.53 -41.82 L-27.39 -33.78 L-13.19 -24.19 L-3.98 -15.05 L1.17 -7.22 L1.94 -4.56 L0 0"
        stroke="none" stroke-width="0" fill="#ffffff" fill-rule="evenodd"></path>
      <path
        d="M0 0 C-1.46 3.41, -4.01 14.7, -8.78 20.44 C-13.54 26.18, -20.44 34.59, -28.61 34.45 C-36.77 34.3, -49.24 19.97, -57.78 19.57 C-66.32 19.17, -73.87 27.81, -79.82 32.05 C-85.78 36.29, -86.97 39.8, -93.49 45.01 C-100.01 50.22, -108.72 61.88, -118.95 63.29 C-129.18 64.71, -143.54 53.82, -154.86 53.5 C-166.17 53.17, -176.73 56.76, -186.85 61.33 C-196.96 65.9, -204.04 77.87, -215.57 80.92 C-227.1 83.96, -247.45 84.29, -256.05 79.61 C-264.64 74.93, -260.4 58.94, -267.14 52.85 C-273.89 46.75, -286.73 42.62, -296.52 43.05 C-306.31 43.49, -318.72 52.3, -325.9 55.46 C-333.08 58.61, -333.84 57.85, -339.61 61.99 C-345.38 66.12, -350.82 75.69, -360.5 80.26 C-370.18 84.83, -387.37 90.27, -397.71 89.4 C-408.05 88.53, -414.58 79.72, -422.52 75.04 C-430.46 70.36, -440.69 65.47, -445.37 61.33 C-450.05 57.2, -445.8 51.87, -450.59 50.23 C-455.38 48.6, -467.56 49.25, -474.09 51.54 C-480.62 53.82, -483.56 58.83, -489.76 63.94 C-495.96 69.06, -503.03 77.22, -511.3 82.22 C-519.57 87.23, -529.91 92.56, -539.38 93.97 C-548.84 95.39, -560.16 93.65, -568.1 90.71 C-576.04 87.77, -582.79 82.55, -587.03 76.35 C-591.28 70.15, -589.53 57.63, -593.56 53.5 C-597.59 49.36, -604.77 50.56, -611.19 51.54 C-617.61 52.52, -625.55 58.72, -632.08 59.37 C-638.61 60.03, -642.85 55.24, -650.36 55.46 C-657.86 55.67, -670.05 58.18, -677.12 60.68 C-684.19 63.18, -686.04 69.06, -692.79 70.47 C-699.54 71.89, -711.07 72.97, -717.6 69.17 C-724.13 65.36, -730 56.22, -731.96 47.62 C-733.92 39.03, -731.74 26.3, -729.35 17.59 C-726.96 8.89, -724.24 2.58, -717.6 -4.6 C-710.96 -11.78, -700.52 -20.38, -689.53 -25.49 C-678.54 -30.61, -664.72 -34.31, -651.66 -35.29 C-638.61 -36.27, -624.35 -28.76, -611.19 -31.37 C-598.02 -33.98, -584.96 -42.47, -572.67 -50.95 C-560.37 -59.44, -552.21 -76.42, -537.42 -82.29 C-522.62 -88.17, -496.94 -83.38, -483.88 -86.21 C-470.83 -89.04, -471.92 -96.11, -459.08 -99.26 C-446.24 -102.42, -422.74 -106.55, -406.85 -105.14 C-390.96 -103.73, -376.38 -91.76, -363.76 -90.78 C-351.14 -89.8, -342.33 -99.05, -331.12 -99.26 C-319.91 -99.48, -306.21 -89.15, -296.52 -92.08 C-286.84 -95.02, -283.14 -112.1, -273.02 -116.89 C-262.9 -121.68, -248.54 -123.53, -235.81 -120.81 C-223.08 -118.09, -204.91 -106.88, -196.64 -100.57 C-188.37 -94.26, -190.22 -86.1, -186.19 -82.94 C-182.17 -79.79, -173.57 -84.25, -172.48 -81.64 C-171.4 -79.03, -184.02 -70.1, -179.66 -67.28 C-175.31 -64.45, -157.03 -68.69, -146.37 -64.66 C-135.71 -60.64, -126.35 -46.17, -115.69 -43.12 C-105.02 -40.07, -94.25 -46.6, -82.39 -46.39 C-70.53 -46.17, -56.06 -45.51, -44.53 -41.82 C-33 -38.12, -20.81 -29.96, -13.19 -24.19 C-5.58 -18.42, -1.03 -11.25, 1.17 -7.22 C3.37 -3.18, 0.19 -1.2, 0 0 M0 0 C-1.46 3.41, -4.01 14.7, -8.78 20.44 C-13.54 26.18, -20.44 34.59, -28.61 34.45 C-36.77 34.3, -49.24 19.97, -57.78 19.57 C-66.32 19.17, -73.87 27.81, -79.82 32.05 C-85.78 36.29, -86.97 39.8, -93.49 45.01 C-100.01 50.22, -108.72 61.88, -118.95 63.29 C-129.18 64.71, -143.54 53.82, -154.86 53.5 C-166.17 53.17, -176.73 56.76, -186.85 61.33 C-196.96 65.9, -204.04 77.87, -215.57 80.92 C-227.1 83.96, -247.45 84.29, -256.05 79.61 C-264.64 74.93, -260.4 58.94, -267.14 52.85 C-273.89 46.75, -286.73 42.62, -296.52 43.05 C-306.31 43.49, -318.72 52.3, -325.9 55.46 C-333.08 58.61, -333.84 57.85, -339.61 61.99 C-345.38 66.12, -350.82 75.69, -360.5 80.26 C-370.18 84.83, -387.37 90.27, -397.71 89.4 C-408.05 88.53, -414.58 79.72, -422.52 75.04 C-430.46 70.36, -440.69 65.47, -445.37 61.33 C-450.05 57.2, -445.8 51.87, -450.59 50.23 C-455.38 48.6, -467.56 49.25, -474.09 51.54 C-480.62 53.82, -483.56 58.83, -489.76 63.94 C-495.96 69.06, -503.03 77.22, -511.3 82.22 C-519.57 87.23, -529.91 92.56, -539.38 93.97 C-548.84 95.39, -560.16 93.65, -568.1 90.71 C-576.04 87.77, -582.79 82.55, -587.03 76.35 C-591.28 70.15, -589.53 57.63, -593.56 53.5 C-597.59 49.36, -604.77 50.56, -611.19 51.54 C-617.61 52.52, -625.55 58.72, -632.08 59.37 C-638.61 60.03, -642.85 55.24, -650.36 55.46 C-657.86 55.67, -670.05 58.18, -677.12 60.68 C-684.19 63.18, -686.04 69.06, -692.79 70.47 C-699.54 71.89, -711.07 72.97, -717.6 69.17 C-724.13 65.36, -730 56.22, -731.96 47.62 C-733.92 39.03, -731.74 26.3, -729.35 17.59 C-726.96 8.89, -724.24 2.58, -717.6 -4.6 C-710.96 -11.78, -700.52 -20.38, -689.53 -25.49 C-678.54 -30.61, -664.72 -34.31, -651.66 -35.29 C-638.61 -36.27, -624.35 -28.76, -611.19 -31.37 C-598.02 -33.98, -584.96 -42.47, -572.67 -50.95 C-560.37 -59.44, -552.21 -76.42, -537.42 -82.29 C-522.62 -88.17, -496.94 -83.38, -483.88 -86.21 C-470.83 -89.04, -471.92 -96.11, -459.08 -99.26 C-446.24 -102.42, -422.74 -106.55, -406.85 -105.14 C-390.96 -103.73, -376.38 -91.76, -363.76 -90.78 C-351.14 -89.8, -342.33 -99.05, -331.12 -99.26 C-319.91 -99.48, -306.21 -89.15, -296.52 -92.08 C-286.84 -95.02, -283.14 -112.1, -273.02 -116.89 C-262.9 -121.68, -248.54 -123.53, -235.81 -120.81 C-223.08 -118.09, -204.91 -106.88, -196.64 -100.57 C-188.37 -94.26, -190.22 -86.1, -186.19 -82.94 C-182.17 -79.79, -173.57 -84.25, -172.48 -81.64 C-171.4 -79.03, -184.02 -70.1, -179.66 -67.28 C-175.31 -64.45, -157.03 -68.69, -146.37 -64.66 C-135.71 -60.64, -126.35 -46.17, -115.69 -43.12 C-105.02 -40.07, -94.25 -46.6, -82.39 -46.39 C-70.53 -46.17, -56.06 -45.51, -44.53 -41.82 C-33 -38.12, -20.81 -29.96, -13.19 -24.19 C-5.58 -18.42, -1.03 -11.25, 1.17 -7.22 C3.37 -3.18, 0.19 -1.2, 0 0"
        stroke="#1e1e1e" stroke-width="4" fill="none"></path>
    </g>
  </g>
  <mask></mask>
  <g stroke-linecap="round">
    <g transform="translate(745.0058943791992 128.4808719991911) rotate(0 -367.14836056967647 70.33467338775677)">
      <path
        d="M0 0 C-2.75 7.7, -6.82 36.32, -16.51 46.22 C-26.19 56.13, -45.89 53.16, -58.11 59.43 C-70.33 65.7, -74.95 76.49, -89.81 83.86 C-104.66 91.24, -122.93 98.94, -147.26 103.67 C-171.58 108.41, -210.65 112.48, -235.74 112.26 C-260.83 112.04, -272.61 97.62, -297.81 102.35 C-323.02 107.08, -361.1 139.77, -386.96 140.65 C-412.82 141.53, -423.72 108.3, -452.99 107.64 C-482.27 106.97, -529.26 136.25, -562.61 136.69 C-595.96 137.13, -629.3 117.32, -653.08 110.28 C-676.85 103.23, -692.48 100.92, -705.24 94.43 C-718.01 87.94, -724.83 79.24, -729.67 71.32 C-734.52 63.39, -733.53 50.96, -734.3 46.88 M0 0 C-2.75 7.7, -6.82 36.32, -16.51 46.22 C-26.19 56.13, -45.89 53.16, -58.11 59.43 C-70.33 65.7, -74.95 76.49, -89.81 83.86 C-104.66 91.24, -122.93 98.94, -147.26 103.67 C-171.58 108.41, -210.65 112.48, -235.74 112.26 C-260.83 112.04, -272.61 97.62, -297.81 102.35 C-323.02 107.08, -361.1 139.77, -386.96 140.65 C-412.82 141.53, -423.72 108.3, -452.99 107.64 C-482.27 106.97, -529.26 136.25, -562.61 136.69 C-595.96 137.13, -629.3 117.32, -653.08 110.28 C-676.85 103.23, -692.48 100.92, -705.24 94.43 C-718.01 87.94, -724.83 79.24, -729.67 71.32 C-734.52 63.39, -733.53 50.96, -734.3 46.88"
        stroke="#1e1e1e" stroke-width="4" fill="none"></path>
    </g>
  </g>
  <mask></mask>
  <g stroke-linecap="round">
    <g transform="translate(736.3865886132335 151.7467438462727) rotate(0 -361.7065170228957 43.27385417390087)">
      <path
        d="M0 0 C-2.84 3.45, -8.32 17.07, -17.07 20.68 C-25.82 24.29, -41.36 19.31, -52.52 21.67 C-63.68 24.02, -74.52 29.76, -84.04 34.8 C-93.56 39.83, -98.04 50.5, -109.64 51.87 C-121.24 53.23, -137.27 40.05, -153.63 43 C-169.99 45.96, -189.96 65.76, -207.79 69.59 C-225.63 73.42, -245.6 69.54, -260.64 65.98 C-275.69 62.42, -283.84 47.82, -298.06 48.25 C-312.29 48.69, -328.37 62.92, -345.99 68.61 C-363.61 74.3, -388.5 83.98, -403.76 82.39 C-419.03 80.81, -426.15 63.55, -437.58 59.09 C-449 54.62, -456.07 51.04, -472.33 55.61 C-488.58 60.19, -512.88 87, -535.1 86.54 C-557.31 86.09, -584.07 57.43, -605.6 52.88 C-627.13 48.33, -647.3 58.49, -664.28 59.25 C-681.26 60.01, -697.64 61.6, -707.49 57.43 C-717.35 53.26, -720.76 38.1, -723.41 34.23 M0 0 C-2.84 3.45, -8.32 17.07, -17.07 20.68 C-25.82 24.29, -41.36 19.31, -52.52 21.67 C-63.68 24.02, -74.52 29.76, -84.04 34.8 C-93.56 39.83, -98.04 50.5, -109.64 51.87 C-121.24 53.23, -137.27 40.05, -153.63 43 C-169.99 45.96, -189.96 65.76, -207.79 69.59 C-225.63 73.42, -245.6 69.54, -260.64 65.98 C-275.69 62.42, -283.84 47.82, -298.06 48.25 C-312.29 48.69, -328.37 62.92, -345.99 68.61 C-363.61 74.3, -388.5 83.98, -403.76 82.39 C-419.03 80.81, -426.15 63.55, -437.58 59.09 C-449 54.62, -456.07 51.04, -472.33 55.61 C-488.58 60.19, -512.88 87, -535.1 86.54 C-557.31 86.09, -584.07 57.43, -605.6 52.88 C-627.13 48.33, -647.3 58.49, -664.28 59.25 C-681.26 60.01, -697.64 61.6, -707.49 57.43 C-717.35 53.26, -720.76 38.1, -723.41 34.23"
        stroke="#1e1e1e" stroke-width="4" fill="none"></path>
    </g>
  </g>
  <mask></mask>
  <g stroke-linecap="round">
    <g transform="translate(59.55928836032626 212.18659300269292) rotate(0 330.65498229325567 7.310133732301438)">
      <path
        d="M0 0 C5.32 -0.25, 19.58 -6.16, 31.9 -1.52 C44.22 3.12, 59.58 21.1, 73.93 27.85 C88.28 34.6, 101.02 38.65, 117.98 38.99 C134.95 39.33, 157.14 33.5, 175.71 29.88 C194.27 26.25, 212.84 15.87, 229.38 17.22 C245.92 18.57, 263.14 32.91, 274.96 37.98 C286.77 43.04, 291.16 50.55, 300.27 47.6 C309.39 44.64, 319.26 25.82, 329.64 20.25 C340.02 14.68, 353.36 17.05, 362.56 14.18 C371.75 11.31, 371.33 1.69, 384.84 3.04 C398.34 4.39, 427.79 20.76, 443.57 22.28 C459.36 23.8, 465.35 13.59, 479.53 12.15 C493.7 10.72, 518.43 16.2, 528.64 13.67 C538.85 11.14, 531.77 -0.34, 540.8 -3.04 C549.83 -5.74, 569.41 2.03, 582.82 -2.53 C596.24 -7.09, 608.23 -25.23, 621.31 -30.38 C634.39 -35.53, 654.64 -32.91, 661.31 -33.42 M0 0 C5.32 -0.25, 19.58 -6.16, 31.9 -1.52 C44.22 3.12, 59.58 21.1, 73.93 27.85 C88.28 34.6, 101.02 38.65, 117.98 38.99 C134.95 39.33, 157.14 33.5, 175.71 29.88 C194.27 26.25, 212.84 15.87, 229.38 17.22 C245.92 18.57, 263.14 32.91, 274.96 37.98 C286.77 43.04, 291.16 50.55, 300.27 47.6 C309.39 44.64, 319.26 25.82, 329.64 20.25 C340.02 14.68, 353.36 17.05, 362.56 14.18 C371.75 11.31, 371.33 1.69, 384.84 3.04 C398.34 4.39, 427.79 20.76, 443.57 22.28 C459.36 23.8, 465.35 13.59, 479.53 12.15 C493.7 10.72, 518.43 16.2, 528.64 13.67 C538.85 11.14, 531.77 -0.34, 540.8 -3.04 C549.83 -5.74, 569.41 2.03, 582.82 -2.53 C596.24 -7.09, 608.23 -25.23, 621.31 -30.38 C634.39 -35.53, 654.64 -32.91, 661.31 -33.42"
        stroke="#1e1e1e" stroke-width="4" fill="none"></path>
    </g>
  </g>
  <mask></mask>
  <g stroke-linecap="round">
    <g transform="translate(267.36891805580217 182.45750516674843) rotate(0 24.801301031903222 -18.01211806786273)">
      <path
        d="M0 0 C1.29 -2.31, 3.46 -8.96, 7.76 -13.86 C12.05 -18.75, 18.8 -25.68, 25.77 -29.37 C32.75 -33.07, 45.63 -34.92, 49.6 -36.02 M0 0 C1.29 -2.31, 3.46 -8.96, 7.76 -13.86 C12.05 -18.75, 18.8 -25.68, 25.77 -29.37 C32.75 -33.07, 45.63 -34.92, 49.6 -36.02"
        stroke="#1e1e1e" stroke-width="2" fill="none"></path>
    </g>
  </g>
  <mask></mask>
  <g stroke-linecap="round">
    <g transform="translate(505.405986060327 155.30077331058692) rotate(0 14.150059013742975 -15.446642810969024)">
      <path
        d="M0 0 C-4.71 -1.43, -17.83 -3.83, -28.27 -8.59 C-38.7 -13.35, -50.34 -24.02, -62.63 -28.54 C-74.91 -33.07, -88.4 -36.58, -101.98 -35.75 C-115.55 -34.92, -132.83 -28.03, -144.1 -23.55 C-155.37 -19.07, -163.86 -13.99, -169.59 -8.87 C-175.32 -3.74, -177.9 3.05, -178.46 7.2 C-179.01 11.36, -177.77 15.01, -172.92 16.07 C-168.07 17.13, -154.26 15.19, -149.36 13.58 C-144.47 11.96, -144.33 8.91, -143.54 6.37 C-142.76 3.83, -146.27 -0.92, -144.65 -1.66 C-143.03 -2.4, -136.25 -0.42, -133.84 1.94 C-131.44 4.3, -129.32 9.1, -130.24 12.47 C-131.17 15.84, -134.63 20.64, -139.39 22.17 C-144.14 23.69, -152.64 21.71, -158.78 21.61 C-164.93 21.52, -171.44 20.88, -176.24 21.61 C-181.04 22.35, -183.45 26.09, -187.6 26.05 C-191.76 26, -199.29 24.8, -201.18 21.34 C-203.08 17.87, -201.83 10.95, -198.96 5.27 C-196.1 -0.42, -190.51 -6.6, -184 -12.75 C-177.49 -18.89, -169.45 -25.22, -159.89 -31.59 C-150.33 -37.96, -138.51 -46.79, -126.64 -50.99 C-114.77 -55.19, -102.21 -57.55, -88.68 -56.81 C-75.14 -56.07, -59.62 -52.37, -45.45 -46.55 C-31.27 -40.74, -13.39 -27.39, -3.6 -21.89 C6.19 -16.4, 6.84 -12.75, 13.3 -13.58 C19.77 -14.41, 27.66 -23.28, 35.19 -26.88 C42.72 -30.48, 50.99 -34.68, 58.47 -35.19 C65.95 -35.7, 74.22 -31.91, 80.08 -29.93 C85.95 -27.94, 89.01 -23.71, 93.66 -23.28 C98.32 -22.85, 103.24 -27.11, 108 -27.35 C112.76 -27.59, 117.65 -26.25, 122.21 -24.72 C126.78 -23.18, 129.19 -20.64, 135.37 -18.14 C141.56 -15.64, 150.77 -11.38, 159.32 -9.72 C167.88 -8.05, 177.53 -9.41, 186.7 -8.14 C195.86 -6.87, 207.05 -2.57, 214.33 -2.08 C221.61 -1.6, 227.71 -4.72, 230.39 -5.24 M0 0 C-4.71 -1.43, -17.83 -3.83, -28.27 -8.59 C-38.7 -13.35, -50.34 -24.02, -62.63 -28.54 C-74.91 -33.07, -88.4 -36.58, -101.98 -35.75 C-115.55 -34.92, -132.83 -28.03, -144.1 -23.55 C-155.37 -19.07, -163.86 -13.99, -169.59 -8.87 C-175.32 -3.74, -177.9 3.05, -178.46 7.2 C-179.01 11.36, -177.77 15.01, -172.92 16.07 C-168.07 17.13, -154.26 15.19, -149.36 13.58 C-144.47 11.96, -144.33 8.91, -143.54 6.37 C-142.76 3.83, -146.27 -0.92, -144.65 -1.66 C-143.03 -2.4, -136.25 -0.42, -133.84 1.94 C-131.44 4.3, -129.32 9.1, -130.24 12.47 C-131.17 15.84, -134.63 20.64, -139.39 22.17 C-144.14 23.69, -152.64 21.71, -158.78 21.61 C-164.93 21.52, -171.44 20.88, -176.24 21.61 C-181.04 22.35, -183.45 26.09, -187.6 26.05 C-191.76 26, -199.29 24.8, -201.18 21.34 C-203.08 17.87, -201.83 10.95, -198.96 5.27 C-196.1 -0.42, -190.51 -6.6, -184 -12.75 C-177.49 -18.89, -169.45 -25.22, -159.89 -31.59 C-150.33 -37.96, -138.51 -46.79, -126.64 -50.99 C-114.77 -55.19, -102.21 -57.55, -88.68 -56.81 C-75.14 -56.07, -59.62 -52.37, -45.45 -46.55 C-31.27 -40.74, -13.39 -27.39, -3.6 -21.89 C6.19 -16.4, 6.84 -12.75, 13.3 -13.58 C19.77 -14.41, 27.66 -23.28, 35.19 -26.88 C42.72 -30.48, 50.99 -34.68, 58.47 -35.19 C65.95 -35.7, 74.22 -31.91, 80.08 -29.93 C85.95 -27.94, 89.01 -23.71, 93.66 -23.28 C98.32 -22.85, 103.24 -27.11, 108 -27.35 C112.76 -27.59, 117.65 -26.25, 122.21 -24.72 C126.78 -23.18, 129.19 -20.64, 135.37 -18.14 C141.56 -15.64, 150.77 -11.38, 159.32 -9.72 C167.88 -8.05, 177.53 -9.41, 186.7 -8.14 C195.86 -6.87, 207.05 -2.57, 214.33 -2.08 C221.61 -1.6, 227.71 -4.72, 230.39 -5.24"
        stroke="#1e1e1e" stroke-width="2" fill="none"></path>
    </g>
  </g>
  <mask></mask>
  <g stroke-linecap="round">
    <g transform="translate(373.6732770973231 158.6868966722859) rotate(0 -18.495586222047223 14.955856252767717)">
      <path
        d="M0 0 C1.14 -0.37, 4.3 -2.64, 6.83 -2.2 C9.36 -1.76, 13.22 0.22, 15.2 2.64 C17.18 5.07, 18.91 8.96, 18.72 12.33 C18.54 15.71, 15.9 20.19, 14.1 22.91 C12.3 25.62, 10.72 27.09, 7.93 28.63 C5.14 30.18, 2.17 31.98, -2.64 32.16 C-7.45 32.34, -16.01 30.36, -20.93 29.74 C-25.84 29.11, -28.74 29.19, -32.16 28.41 C-35.57 27.64, -38.8 26.47, -41.41 25.11 C-44.02 23.75, -45.41 20.63, -47.8 20.26 C-50.18 19.9, -54.41 22.47, -55.73 22.91 M0 0 C1.14 -0.37, 4.3 -2.64, 6.83 -2.2 C9.36 -1.76, 13.22 0.22, 15.2 2.64 C17.18 5.07, 18.91 8.96, 18.72 12.33 C18.54 15.71, 15.9 20.19, 14.1 22.91 C12.3 25.62, 10.72 27.09, 7.93 28.63 C5.14 30.18, 2.17 31.98, -2.64 32.16 C-7.45 32.34, -16.01 30.36, -20.93 29.74 C-25.84 29.11, -28.74 29.19, -32.16 28.41 C-35.57 27.64, -38.8 26.47, -41.41 25.11 C-44.02 23.75, -45.41 20.63, -47.8 20.26 C-50.18 19.9, -54.41 22.47, -55.73 22.91"
        stroke="#1e1e1e" stroke-width="2" fill="none"></path>
    </g>
  </g>
  <mask></mask>
  <g stroke-linecap="round">
    <g transform="translate(375.7073894355776 163.40079536961093) rotate(0 4.5469628344287685 -0.45019434004257164)">
      <path d="M0 0 C1.52 -0.15, 7.58 -0.75, 9.09 -0.9 M0 0 C1.52 -0.15, 7.58 -0.75, 9.09 -0.9" stroke="#1e1e1e"
        stroke-width="2" fill="none"></path>
    </g>
  </g>
  <mask></mask>
  <g stroke-linecap="round">
    <g transform="translate(375.2571950955353 167.6326221660106) rotate(0 6.212681892585806 0.3151360380297774)">
      <path d="M0 0 C2.07 0.11, 10.35 0.53, 12.43 0.63 M0 0 C2.07 0.11, 10.35 0.53, 12.43 0.63" stroke="#1e1e1e"
        stroke-width="2" fill="none"></path>
    </g>
  </g>
  <mask></mask>
  <g stroke-linecap="round">
    <g transform="translate(373.18630113133986 172.04452669842567) rotate(0 4.772060004449941 3.1513603802973194)">
      <path d="M0 0 C1.59 1.05, 7.95 5.25, 9.54 6.3 M0 0 C1.59 1.05, 7.95 5.25, 9.54 6.3" stroke="#1e1e1e"
        stroke-width="2" fill="none"></path>
    </g>
  </g>
  <mask></mask>
  <g stroke-linecap="round">
    <g transform="translate(370.21501848705975 175.3759648147402) rotate(0 3.6465741543438526 3.6465741543438526)">
      <path d="M0 0 C1.22 1.22, 6.08 6.08, 7.29 7.29 M0 0 C1.22 1.22, 6.08 6.08, 7.29 7.29" stroke="#1e1e1e"
        stroke-width="2" fill="none"></path>
    </g>
  </g>
  <mask></mask>
  <g stroke-linecap="round">
    <g transform="translate(366.97361923875405 177.1767421749114) rotate(0 2.7011660402547477 4.321865664407596)">
      <path d="M0 0 C0.9 1.44, 4.5 7.2, 5.4 8.64 M0 0 C0.9 1.44, 4.5 7.2, 5.4 8.64" stroke="#1e1e1e" stroke-width="2"
        fill="none"></path>
    </g>
  </g>
  <mask></mask>
  <g stroke-linecap="round">
    <g transform="translate(362.47167583832925 178.7074029310529) rotate(0 1.4406218881358654 2.971282644280109)">
      <path d="M0 0 C0.48 0.99, 2.4 4.95, 2.88 5.94 M0 0 C0.48 0.99, 2.4 4.95, 2.88 5.94" stroke="#1e1e1e"
        stroke-width="2" fill="none"></path>
    </g>
  </g>
  <mask></mask>
  <g stroke-linecap="round">
    <g transform="translate(357.8193015523366 177.91780739780324) rotate(0 0.6457302846395123 3.966628891357459)">
      <path d="M0 0 C0.22 1.32, 1.08 6.61, 1.29 7.93 M0 0 C0.22 1.32, 1.08 6.61, 1.29 7.93" stroke="#1e1e1e"
        stroke-width="2" fill="none"></path>
    </g>
  </g>
  <mask></mask>
  <g stroke-linecap="round">
    <g transform="translate(354.1294142115389 177.54881866372443) rotate(0 0.276741550559791 3.966628891357459)">
      <path d="M0 0 C0.09 1.32, 0.46 6.61, 0.55 7.93 M0 0 C0.09 1.32, 0.46 6.61, 0.55 7.93" stroke="#1e1e1e"
        stroke-width="2" fill="none"></path>
    </g>
  </g>
  <mask></mask>
  <g stroke-linecap="round">
    <g transform="translate(349.1480663014622 177.36432429668412) rotate(0 -0.09224718351993033 3.0441570561581557)">
      <path d="M0 0 C-0.03 1.01, -0.15 5.07, -0.18 6.09 M0 0 C-0.03 1.01, -0.15 5.07, -0.18 6.09" stroke="#1e1e1e"
        stroke-width="2" fill="none"></path>
    </g>
  </g>
  <mask></mask>
  <g stroke-linecap="round">
    <g transform="translate(343.42874092322563 176.9953355626035) rotate(0 0.18449436703986066 3.0441570561579283)">
      <path d="M0 0 C0.06 1.01, 0.31 5.07, 0.37 6.09 M0 0 C0.06 1.01, 0.31 5.07, 0.37 6.09" stroke="#1e1e1e"
        stroke-width="2" fill="none"></path>
    </g>
  </g>
  <mask></mask>
  <g stroke-linecap="round">
    <g transform="translate(336.4179549757105 176.9953355626035) rotate(0 1.0147190187192336 2.7674155055981373)">
      <path d="M0 0 C0.34 0.92, 1.69 4.61, 2.03 5.53 M0 0 C0.34 0.92, 1.69 4.61, 2.03 5.53" stroke="#1e1e1e"
        stroke-width="2" fill="none"></path>
    </g>
  </g>
  <mask></mask>
  <g stroke-linecap="round">
    <g transform="translate(11.35082615994179 166.78415972535322) rotate(0 365.6518529471052 -76.4050592108988)">
      <path
        d="M0 0 C3 -5.73, 11.28 -25.65, 18.01 -34.38 C24.74 -43.11, 31.2 -46.84, 40.39 -52.39 C49.57 -57.94, 59.58 -66.58, 73.13 -67.67 C86.68 -68.76, 107.15 -56.21, 121.7 -58.94 C136.26 -61.67, 147.81 -74.95, 160.45 -84.05 C173.09 -93.14, 183.74 -108.42, 197.56 -113.52 C211.39 -118.61, 231.85 -111.61, 243.4 -114.61 C254.96 -117.61, 255.5 -128.16, 266.87 -131.53 C278.24 -134.89, 299.71 -134.53, 311.62 -134.8 C323.54 -135.07, 328.9 -134.98, 338.36 -133.16 C347.82 -131.34, 357.92 -124.98, 368.38 -123.89 C378.84 -122.79, 391.94 -125.34, 401.13 -126.61 C410.31 -127.89, 418.04 -131.43, 423.5 -131.53 C428.96 -131.62, 429.05 -125.8, 433.87 -127.16 C438.69 -128.52, 446.06 -135.62, 452.43 -139.71 C458.79 -143.8, 463.16 -150.08, 472.07 -151.72 C480.99 -153.36, 494.54 -153.54, 505.91 -149.54 C517.28 -145.53, 533.38 -133.8, 540.29 -127.71 C547.2 -121.61, 544.75 -115.43, 547.39 -112.97 C550.02 -110.51, 555.85 -115.15, 556.12 -112.97 C556.39 -110.79, 546.57 -103.06, 549.02 -99.87 C551.48 -96.69, 564.03 -94.78, 570.85 -93.87 C577.68 -92.96, 583.13 -97.33, 589.95 -94.41 C596.78 -91.5, 603.78 -80.13, 611.78 -76.4 C619.79 -72.68, 630.16 -71.4, 637.98 -72.04 C645.8 -72.68, 649.08 -80.13, 658.72 -80.23 C668.36 -80.32, 685.1 -77.5, 695.83 -72.58 C706.56 -67.67, 717.21 -57.21, 723.12 -50.75 C729.03 -44.3, 729.94 -36.66, 731.3 -33.84 M0 0 C3 -5.73, 11.28 -25.65, 18.01 -34.38 C24.74 -43.11, 31.2 -46.84, 40.39 -52.39 C49.57 -57.94, 59.58 -66.58, 73.13 -67.67 C86.68 -68.76, 107.15 -56.21, 121.7 -58.94 C136.26 -61.67, 147.81 -74.95, 160.45 -84.05 C173.09 -93.14, 183.74 -108.42, 197.56 -113.52 C211.39 -118.61, 231.85 -111.61, 243.4 -114.61 C254.96 -117.61, 255.5 -128.16, 266.87 -131.53 C278.24 -134.89, 299.71 -134.53, 311.62 -134.8 C323.54 -135.07, 328.9 -134.98, 338.36 -133.16 C347.82 -131.34, 357.92 -124.98, 368.38 -123.89 C378.84 -122.79, 391.94 -125.34, 401.13 -126.61 C410.31 -127.89, 418.04 -131.43, 423.5 -131.53 C428.96 -131.62, 429.05 -125.8, 433.87 -127.16 C438.69 -128.52, 446.06 -135.62, 452.43 -139.71 C458.79 -143.8, 463.16 -150.08, 472.07 -151.72 C480.99 -153.36, 494.54 -153.54, 505.91 -149.54 C517.28 -145.53, 533.38 -133.8, 540.29 -127.71 C547.2 -121.61, 544.75 -115.43, 547.39 -112.97 C550.02 -110.51, 555.85 -115.15, 556.12 -112.97 C556.39 -110.79, 546.57 -103.06, 549.02 -99.87 C551.48 -96.69, 564.03 -94.78, 570.85 -93.87 C577.68 -92.96, 583.13 -97.33, 589.95 -94.41 C596.78 -91.5, 603.78 -80.13, 611.78 -76.4 C619.79 -72.68, 630.16 -71.4, 637.98 -72.04 C645.8 -72.68, 649.08 -80.13, 658.72 -80.23 C668.36 -80.32, 685.1 -77.5, 695.83 -72.58 C706.56 -67.67, 717.21 -57.21, 723.12 -50.75 C729.03 -44.3, 729.94 -36.66, 731.3 -33.84"
        stroke="#1e1e1e" stroke-width="4" fill="none"></path>
    </g>
  </g>
  <mask></mask>
  <g stroke-linecap="round">
    <g transform="translate(13.38212967667505 161.01928946677162) rotate(0 363.8000963614311 4.525534735536894)">
      <path
        d="M0 0 C-0.49 2.09, -3.06 7.09, -2.92 12.52 C-2.78 17.94, -3.27 27.95, 0.83 32.54 C4.94 37.13, 14.32 39.57, 21.7 40.05 C29.07 40.54, 38.04 38.31, 45.06 35.46 C52.08 32.61, 57.3 24.82, 63.83 22.95 C70.37 21.07, 78.3 23.02, 84.28 24.2 C90.26 25.38, 93.73 30.87, 99.71 30.04 C105.69 29.21, 113.27 20.1, 120.16 19.19 C127.04 18.29, 136.92 19.75, 141.02 24.62 C145.12 29.48, 140.46 42.42, 144.77 48.4 C149.09 54.38, 157.85 58.27, 166.89 60.5 C175.93 62.72, 187.05 66.27, 199.01 61.75 C210.97 57.23, 227.94 39.71, 238.65 33.38 C249.36 27.05, 256.38 25.45, 263.26 23.78 C270.15 22.11, 277.03 21.28, 279.95 23.36 C282.87 25.45, 277.52 32.96, 280.79 36.3 C284.05 39.64, 292.89 39.77, 299.56 43.39 C306.24 47.01, 313.54 54.86, 320.84 57.99 C328.14 61.12, 334.12 64.32, 343.37 62.17 C352.62 60.01, 365.62 52.15, 376.33 45.06 C387.04 37.97, 397.88 25.03, 407.62 19.61 C417.35 14.19, 425.07 12.03, 434.74 12.52 C444.4 13, 460.05 16.9, 465.61 22.53 C471.18 28.16, 464.57 40.61, 468.12 46.31 C471.66 52.01, 478.27 55.49, 486.89 56.74 C495.51 57.99, 511.71 57.65, 519.85 53.82 C527.99 50, 527.5 38.31, 535.7 33.79 C543.91 29.27, 559.63 27.12, 569.08 26.7 C578.54 26.28, 585.49 30.39, 592.45 31.29 C599.4 32.2, 605.24 32.43, 610.8 32.13 C616.37 31.82, 618.94 34.08, 625.85 29.46 C632.77 24.84, 644.85 10.35, 652.28 4.41 C659.71 -1.53, 664.88 -4.48, 670.44 -6.16 C675.99 -7.85, 680.17 -7.85, 685.6 -5.7 C691.04 -3.56, 696.79 6.4, 703.07 6.71 C709.35 7.01, 718.77 3.26, 723.29 -3.86 C727.81 -10.99, 731.72 -27.53, 730.19 -36.04 C728.66 -44.54, 716.78 -51.74, 714.1 -54.88 M0 0 C-0.49 2.09, -3.06 7.09, -2.92 12.52 C-2.78 17.94, -3.27 27.95, 0.83 32.54 C4.94 37.13, 14.32 39.57, 21.7 40.05 C29.07 40.54, 38.04 38.31, 45.06 35.46 C52.08 32.61, 57.3 24.82, 63.83 22.95 C70.37 21.07, 78.3 23.02, 84.28 24.2 C90.26 25.38, 93.73 30.87, 99.71 30.04 C105.69 29.21, 113.27 20.1, 120.16 19.19 C127.04 18.29, 136.92 19.75, 141.02 24.62 C145.12 29.48, 140.46 42.42, 144.77 48.4 C149.09 54.38, 157.85 58.27, 166.89 60.5 C175.93 62.72, 187.05 66.27, 199.01 61.75 C210.97 57.23, 227.94 39.71, 238.65 33.38 C249.36 27.05, 256.38 25.45, 263.26 23.78 C270.15 22.11, 277.03 21.28, 279.95 23.36 C282.87 25.45, 277.52 32.96, 280.79 36.3 C284.05 39.64, 292.89 39.77, 299.56 43.39 C306.24 47.01, 313.54 54.86, 320.84 57.99 C328.14 61.12, 334.12 64.32, 343.37 62.17 C352.62 60.01, 365.62 52.15, 376.33 45.06 C387.04 37.97, 397.88 25.03, 407.62 19.61 C417.35 14.19, 425.07 12.03, 434.74 12.52 C444.4 13, 460.05 16.9, 465.61 22.53 C471.18 28.16, 464.57 40.61, 468.12 46.31 C471.66 52.01, 478.27 55.49, 486.89 56.74 C495.51 57.99, 511.71 57.65, 519.85 53.82 C527.99 50, 527.5 38.31, 535.7 33.79 C543.91 29.27, 559.63 27.12, 569.08 26.7 C578.54 26.28, 585.49 30.39, 592.45 31.29 C599.4 32.2, 605.24 32.43, 610.8 32.13 C616.37 31.82, 618.94 34.08, 625.85 29.46 C632.77 24.84, 644.85 10.35, 652.28 4.41 C659.71 -1.53, 664.88 -4.48, 670.44 -6.16 C675.99 -7.85, 680.17 -7.85, 685.6 -5.7 C691.04 -3.56, 696.79 6.4, 703.07 6.71 C709.35 7.01, 718.77 3.26, 723.29 -3.86 C727.81 -10.99, 731.72 -27.53, 730.19 -36.04 C728.66 -44.54, 716.78 -51.74, 714.1 -54.88"
        stroke="#1e1e1e" stroke-width="4" fill="none"></path>
    </g>
  </g>
  <mask></mask>
  <g stroke-linecap="round">
    <g transform="translate(17.760177722256685 175.6261537059986) rotate(0 301.7945166831289 -74.11364898706461)">
      <path
        d="M0 0 C1.37 -3.61, 3.75 -14.07, 8.23 -21.65 C12.7 -29.23, 18.19 -38.11, 26.85 -45.47 C35.51 -52.83, 50.45 -62.72, 60.2 -65.83 C69.94 -68.93, 75.21 -66.11, 85.31 -64.09 C95.42 -62.07, 107.76 -50.96, 120.83 -53.7 C133.89 -56.44, 151.86 -71.17, 163.7 -80.55 C175.54 -89.93, 178.93 -104.87, 191.85 -110 C204.77 -115.12, 226.93 -108.05, 241.22 -111.3 C255.51 -114.55, 260.71 -126.89, 277.59 -129.49 C294.48 -132.08, 322.74 -128.13, 342.55 -126.89 C362.37 -125.64, 382.89 -122.63, 396.46 -122.01 C410.03 -121.4, 414.8 -120.84, 423.97 -123.19 C433.14 -125.54, 442.08 -131.96, 451.47 -136.12 C460.85 -140.27, 467.52 -149.37, 480.27 -148.11 C493.01 -146.85, 517.94 -136.35, 527.94 -128.54 C537.94 -120.74, 531.31 -106.45, 540.26 -101.26 C549.21 -96.08, 571.08 -100.12, 581.64 -97.43 C592.19 -94.74, 599.93 -87.18, 603.59 -85.13 M0 0 C1.37 -3.61, 3.75 -14.07, 8.23 -21.65 C12.7 -29.23, 18.19 -38.11, 26.85 -45.47 C35.51 -52.83, 50.45 -62.72, 60.2 -65.83 C69.94 -68.93, 75.21 -66.11, 85.31 -64.09 C95.42 -62.07, 107.76 -50.96, 120.83 -53.7 C133.89 -56.44, 151.86 -71.17, 163.7 -80.55 C175.54 -89.93, 178.93 -104.87, 191.85 -110 C204.77 -115.12, 226.93 -108.05, 241.22 -111.3 C255.51 -114.55, 260.71 -126.89, 277.59 -129.49 C294.48 -132.08, 322.74 -128.13, 342.55 -126.89 C362.37 -125.64, 382.89 -122.63, 396.46 -122.01 C410.03 -121.4, 414.8 -120.84, 423.97 -123.19 C433.14 -125.54, 442.08 -131.96, 451.47 -136.12 C460.85 -140.27, 467.52 -149.37, 480.27 -148.11 C493.01 -146.85, 517.94 -136.35, 527.94 -128.54 C537.94 -120.74, 531.31 -106.45, 540.26 -101.26 C549.21 -96.08, 571.08 -100.12, 581.64 -97.43 C592.19 -94.74, 599.93 -87.18, 603.59 -85.13"
        stroke="#1e1e1e" stroke-width="2" fill="none"></path>
    </g>
  </g>
  <mask></mask>
</svg>