<svg version="1.1" xmlns="http://www.w3.org/2000/svg" viewBox="0 0 760.3424752582582 253.38227451638932"
  width="760.3424752582582" height="253.38227451638932">
  <!-- svg-source:excalidraw -->

  <defs>
    <style class="style-fonts">
      @font-face {
        font-family: "Virgil";
        src: url("https://excalidraw.com/Virgil.woff2");
      }

      @font-face {
        font-family: "Cascadia";
        src: url("https://excalidraw.com/Cascadia.woff2");
      }
    </style>

  </defs>
  <rect x="0" y="0" width="760.3424752582582" height="253.38227451638932" fill="#ffffff"></rect>
  <g stroke-linecap="round">
    <g transform="translate(745.4907205384216 175.3275410321039) rotate(0 -365.3194829092927 -48.63640377390925)"
      fill-rule="evenodd">
      <path
        d="M0 0 L-4.63 5.24 L-11.9 10.87 L-21.96 14.04 L-33.12 13.97 L-38.22 10.88 L-48.33 1.29 L-53.82 -1.04 L-59.57 -0.32 L-65.5 2.26 L-79.18 10.35 L-105.78 29.58 L-115.93 33.64 L-126.77 33.54 L-150.3 27.9 L-162.5 27.95 L-175.43 32.47 L-202.17 47.24 L-213.74 52.79 L-231.92 58.51 L-239.31 59.28 L-245.83 57.96 L-251.02 53.52 L-258.59 38.9 L-262.9 32.6 L-272.87 23.39 L-278.65 20.03 L-285.67 18.11 L-294.68 17.7 L-305.18 18.57 L-315.89 20.76 L-325.52 24.32 L-333.25 30.18 L-346.76 45.97 L-355.02 52.27 L-365.54 57 L-377.47 60.94 L-389.57 63.26 L-400.57 63.14 L-410.5 59.41 L-419.91 52.82 L-435.24 39.33 L-439.62 34.47 L-444.41 26.5 L-448.7 24.84 L-456.05 25.51 L-465.22 28.01 L-482.33 35.19 L-487.49 39.15 L-494.9 48.44 L-500.45 52.79 L-518.59 61.42 L-528.87 65.07 L-538.23 67.28 L-554.46 67.67 L-561.76 65.94 L-568.24 62.62 L-573.69 56.69 L-586.36 33.64 L-593.44 25.23 L-596.87 22.75 L-600.85 21.74 L-605.64 23.05 L-616.37 29.85 L-621.55 32.09 L-640.18 30.02 L-660.88 36.74 L-672.32 35.74 L-676.41 36.74 L-681 40.21 L-691.07 50.23 L-696.59 53.31 L-702.87 54.09 L-709.76 53.5 L-716.4 51.78 L-721.95 49.17 L-726.33 45.21 L-729.94 39.95 L-734.37 29.5 L-734.52 25.51 L-731.26 15.53 L-735.11 8.6 L-735.4 5.69 L-732.27 -2.62 L-726.61 -11.9 L-713.4 -24.99 L-710.56 -29.5 L-710.25 -34.16 L-713.21 -43.79 L-713.67 -48.65 L-710.53 -59.29 L-705.91 -68.31 L-697.11 -74.52 L-692.3 -82.38 L-688.83 -85.39 L-676.08 -92.48 L-660.36 -98.85 L-628.28 -104.02 L-625.17 -105.97 L-622.58 -112.82 L-617.64 -117.54 L-609.65 -121.62 L-579.63 -125.24 L-576.13 -126.5 L-572.53 -129.22 L-567.73 -129.9 L-532.07 -127.47 L-522.13 -127.71 L-521.97 -128.34 L-527.55 -132.14 L-528.39 -134.04 L-521.74 -137.66 L-512.35 -140.77 L-495.17 -143.45 L-493.63 -145.27 L-492.16 -151.71 L-487.53 -153.79 L-480.36 -153.92 L-456.94 -146.56 L-447.11 -145 L-439.55 -145.58 L-437.56 -147.43 L-434.19 -155.42 L-428.78 -157.96 L-420.35 -159 L-406.1 -158.37 L-390.81 -156.82 L-368.57 -152.93 L-347.74 -157.44 L-335.78 -156.26 L-324.73 -153.4 L-311.2 -144.54 L-300.25 -143.53 L-290.83 -144.85 L-289.44 -146.69 L-290.24 -152.14 L-289.6 -154.52 L-284.8 -157.87 L-266.3 -163.85 L-254.25 -165.23 L-242.81 -161.31 L-233.44 -156.14 L-231.17 -154.41 L-229.3 -151.65 L-226.98 -150.68 L-212.59 -151.72 L-205.77 -149.67 L-196.93 -143.99 L-167.94 -121.71 L-162.35 -119.34 L-153.42 -118.71 L-152.51 -116.77 L-153.24 -111.8 L-152.44 -109.88 L-139.08 -107.03 L-133.71 -104.9 L-129.97 -101.75 L-131.37 -93.78 L-129.73 -90.72 L-119.64 -83.69 L-104.06 -77.29 L-59.93 -71.29 L-39.05 -65.2 L-21.07 -57.62 L-8.51 -48.74 L-0.2 -39.63 L3.55 -31.53 L4.6 -24.03 L3.76 -10.82 L0 0"
        stroke="none" stroke-width="0" fill="#ffffff" fill-rule="evenodd"></path>
      <path
        d="M0 0 C-1.98 1.81, -6.38 8.54, -11.9 10.87 C-17.42 13.2, -26.14 15.96, -33.12 13.97 C-40.11 11.99, -46.15 -0.43, -53.82 -1.04 C-61.5 -1.64, -68.83 4.57, -79.18 10.35 C-89.53 16.13, -102.04 30.71, -115.93 33.64 C-129.81 36.57, -146.2 24.76, -162.5 27.95 C-178.81 31.14, -199.85 47.78, -213.74 52.79 C-227.63 57.79, -237.63 61.33, -245.83 57.96 C-254.02 54.6, -256.26 39.25, -262.9 32.6 C-269.54 25.96, -275.24 19.49, -285.67 18.11 C-296.11 16.73, -313.97 18.63, -325.52 24.32 C-337.08 30.02, -342.52 45.8, -355.02 52.27 C-367.53 58.74, -387.2 65.29, -400.57 63.14 C-413.93 60.98, -427.22 45.71, -435.24 39.33 C-443.26 32.95, -440.85 25.53, -448.7 24.84 C-456.54 24.15, -473.71 30.53, -482.33 35.19 C-490.96 39.85, -491.13 47.44, -500.45 52.79 C-509.76 58.14, -526.93 65.64, -538.23 67.28 C-549.53 68.92, -560.22 68.23, -568.24 62.62 C-576.27 57.01, -580.92 40.45, -586.36 33.64 C-591.79 26.83, -594.98 21.99, -600.85 21.74 C-606.71 21.48, -614.99 30.71, -621.55 32.09 C-628.1 33.47, -633.62 29.24, -640.18 30.02 C-646.74 30.79, -654.84 35.62, -660.88 36.74 C-666.92 37.87, -670.46 33.98, -676.41 36.74 C-682.36 39.5, -689 51.24, -696.59 53.31 C-704.18 55.38, -715.65 53.13, -721.95 49.17 C-728.25 45.2, -732.82 35.11, -734.37 29.5 C-735.92 23.89, -731.09 19.49, -731.26 15.53 C-731.44 11.56, -736.18 10.26, -735.4 5.69 C-734.63 1.12, -730.75 -6.04, -726.61 -11.9 C-722.47 -17.77, -712.72 -23.37, -710.56 -29.5 C-708.41 -35.62, -714.45 -42.18, -713.67 -48.65 C-712.89 -55.12, -708.67 -64, -705.91 -68.31 C-703.15 -72.63, -699.95 -71.68, -697.11 -74.52 C-694.26 -77.37, -694.95 -81.34, -688.83 -85.39 C-682.7 -89.45, -670.46 -95.74, -660.36 -98.85 C-650.27 -101.95, -634.57 -101.69, -628.28 -104.02 C-621.98 -106.35, -625.69 -109.89, -622.58 -112.82 C-619.48 -115.75, -616.81 -119.55, -609.65 -121.62 C-602.49 -123.69, -586.62 -123.86, -579.63 -125.24 C-572.64 -126.62, -577.04 -129.55, -567.73 -129.9 C-558.41 -130.24, -530.29 -126.62, -523.74 -127.31 C-517.18 -128, -530.29 -131.8, -528.39 -134.04 C-526.5 -136.28, -517.89 -139.2, -512.35 -140.77 C-506.81 -142.34, -498.54 -141.63, -495.17 -143.45 C-491.81 -145.28, -494.63 -149.96, -492.16 -151.71 C-489.69 -153.45, -486.23 -154.78, -480.36 -153.92 C-474.49 -153.07, -463.74 -147.95, -456.94 -146.56 C-450.13 -145.17, -443.34 -144.11, -439.55 -145.58 C-435.76 -147.06, -437.39 -153.18, -434.19 -155.42 C-430.99 -157.66, -427.58 -158.76, -420.35 -159 C-413.12 -159.23, -399.44 -157.83, -390.81 -156.82 C-382.18 -155.81, -375.75 -152.83, -368.57 -152.93 C-361.4 -153.04, -355.05 -157.36, -347.74 -157.44 C-340.43 -157.52, -330.82 -155.55, -324.73 -153.4 C-318.64 -151.25, -316.85 -145.96, -311.2 -144.54 C-305.55 -143.11, -294.43 -143.18, -290.83 -144.85 C-287.23 -146.51, -291.86 -151.9, -289.6 -154.52 C-287.34 -157.14, -283.17 -158.8, -277.28 -160.58 C-271.39 -162.37, -261.56 -165.97, -254.25 -165.23 C-246.95 -164.49, -237.99 -158.56, -233.44 -156.14 C-228.9 -153.71, -231.59 -151.76, -226.98 -150.68 C-222.37 -149.61, -215.61 -154.5, -205.77 -149.67 C-195.93 -144.84, -176.66 -126.87, -167.94 -121.71 C-159.22 -116.55, -156 -120.68, -153.42 -118.71 C-150.84 -116.74, -154.83 -111.83, -152.44 -109.88 C-150.05 -107.93, -142.83 -108.38, -139.08 -107.03 C-135.34 -105.67, -131.53 -104.47, -129.97 -101.75 C-128.41 -99.03, -134.05 -94.8, -129.73 -90.72 C-125.41 -86.64, -115.7 -80.52, -104.06 -77.29 C-92.43 -74.05, -73.76 -74.57, -59.93 -71.29 C-46.1 -68.01, -31.03 -62.89, -21.07 -57.62 C-11.12 -52.34, -4.48 -45.22, -0.2 -39.63 C4.08 -34.03, 3.94 -28.84, 4.6 -24.03 C5.25 -19.23, 4.52 -14.83, 3.76 -10.82 C2.99 -6.82, 0.63 -1.8, 0 0 M0 0 C-1.98 1.81, -6.38 8.54, -11.9 10.87 C-17.42 13.2, -26.14 15.96, -33.12 13.97 C-40.11 11.99, -46.15 -0.43, -53.82 -1.04 C-61.5 -1.64, -68.83 4.57, -79.18 10.35 C-89.53 16.13, -102.04 30.71, -115.93 33.64 C-129.81 36.57, -146.2 24.76, -162.5 27.95 C-178.81 31.14, -199.85 47.78, -213.74 52.79 C-227.63 57.79, -237.63 61.33, -245.83 57.96 C-254.02 54.6, -256.26 39.25, -262.9 32.6 C-269.54 25.96, -275.24 19.49, -285.67 18.11 C-296.11 16.73, -313.97 18.63, -325.52 24.32 C-337.08 30.02, -342.52 45.8, -355.02 52.27 C-367.53 58.74, -387.2 65.29, -400.57 63.14 C-413.93 60.98, -427.22 45.71, -435.24 39.33 C-443.26 32.95, -440.85 25.53, -448.7 24.84 C-456.54 24.15, -473.71 30.53, -482.33 35.19 C-490.96 39.85, -491.13 47.44, -500.45 52.79 C-509.76 58.14, -526.93 65.64, -538.23 67.28 C-549.53 68.92, -560.22 68.23, -568.24 62.62 C-576.27 57.01, -580.92 40.45, -586.36 33.64 C-591.79 26.83, -594.98 21.99, -600.85 21.74 C-606.71 21.48, -614.99 30.71, -621.55 32.09 C-628.1 33.47, -633.62 29.24, -640.18 30.02 C-646.74 30.79, -654.84 35.62, -660.88 36.74 C-666.92 37.87, -670.46 33.98, -676.41 36.74 C-682.36 39.5, -689 51.24, -696.59 53.31 C-704.18 55.38, -715.65 53.13, -721.95 49.17 C-728.25 45.2, -732.82 35.11, -734.37 29.5 C-735.92 23.89, -731.09 19.49, -731.26 15.53 C-731.44 11.56, -736.18 10.26, -735.4 5.69 C-734.63 1.12, -730.75 -6.04, -726.61 -11.9 C-722.47 -17.77, -712.72 -23.37, -710.56 -29.5 C-708.41 -35.62, -714.45 -42.18, -713.67 -48.65 C-712.89 -55.12, -708.67 -64, -705.91 -68.31 C-703.15 -72.63, -699.95 -71.68, -697.11 -74.52 C-694.26 -77.37, -694.95 -81.34, -688.83 -85.39 C-682.7 -89.45, -670.46 -95.74, -660.36 -98.85 C-650.27 -101.95, -634.57 -101.69, -628.28 -104.02 C-621.98 -106.35, -625.69 -109.89, -622.58 -112.82 C-619.48 -115.75, -616.81 -119.55, -609.65 -121.62 C-602.49 -123.69, -586.62 -123.86, -579.63 -125.24 C-572.64 -126.62, -577.04 -129.55, -567.73 -129.9 C-558.41 -130.24, -530.29 -126.62, -523.74 -127.31 C-517.18 -128, -530.29 -131.8, -528.39 -134.04 C-526.5 -136.28, -517.89 -139.2, -512.35 -140.77 C-506.81 -142.34, -498.54 -141.63, -495.17 -143.45 C-491.81 -145.28, -494.63 -149.96, -492.16 -151.71 C-489.69 -153.45, -486.23 -154.78, -480.36 -153.92 C-474.49 -153.07, -463.74 -147.95, -456.94 -146.56 C-450.13 -145.17, -443.34 -144.11, -439.55 -145.58 C-435.76 -147.06, -437.39 -153.18, -434.19 -155.42 C-430.99 -157.66, -427.58 -158.76, -420.35 -159 C-413.12 -159.23, -399.44 -157.83, -390.81 -156.82 C-382.18 -155.81, -375.75 -152.83, -368.57 -152.93 C-361.4 -153.04, -355.05 -157.36, -347.74 -157.44 C-340.43 -157.52, -330.82 -155.55, -324.73 -153.4 C-318.64 -151.25, -316.85 -145.96, -311.2 -144.54 C-305.55 -143.11, -294.43 -143.18, -290.83 -144.85 C-287.23 -146.51, -291.86 -151.9, -289.6 -154.52 C-287.34 -157.14, -283.17 -158.8, -277.28 -160.58 C-271.39 -162.37, -261.56 -165.97, -254.25 -165.23 C-246.95 -164.49, -237.99 -158.56, -233.44 -156.14 C-228.9 -153.71, -231.59 -151.76, -226.98 -150.68 C-222.37 -149.61, -215.61 -154.5, -205.77 -149.67 C-195.93 -144.84, -176.66 -126.87, -167.94 -121.71 C-159.22 -116.55, -156 -120.68, -153.42 -118.71 C-150.84 -116.74, -154.83 -111.83, -152.44 -109.88 C-150.05 -107.93, -142.83 -108.38, -139.08 -107.03 C-135.34 -105.67, -131.53 -104.47, -129.97 -101.75 C-128.41 -99.03, -134.05 -94.8, -129.73 -90.72 C-125.41 -86.64, -115.7 -80.52, -104.06 -77.29 C-92.43 -74.05, -73.76 -74.57, -59.93 -71.29 C-46.1 -68.01, -31.03 -62.89, -21.07 -57.62 C-11.12 -52.34, -4.48 -45.22, -0.2 -39.63 C4.08 -34.03, 3.94 -28.84, 4.6 -24.03 C5.25 -19.23, 4.52 -14.83, 3.76 -10.82 C2.99 -6.82, 0.63 -1.8, 0 0"
        stroke="#1e1e1e" stroke-width="4" fill="none"></path>
    </g>
  </g>
  <mask></mask>
  <g stroke-linecap="round">
    <g transform="translate(23.219118809995962 159.28446743550558) rotate(0 37.30429586365335 21.94538856688041)">
      <path
        d="M0 0 C-0.77 1.61, -3.6 5.24, -4.61 9.66 C-5.62 14.08, -7.02 22.37, -6.05 26.53 C-5.09 30.68, -2.4 32.12, 1.15 34.6 C4.71 37.07, 9.66 40.05, 15.28 41.38 C20.9 42.7, 28.18 42.12, 34.89 42.53 C41.59 42.94, 49.09 44.19, 55.5 43.83 C61.92 43.47, 69.13 41.35, 73.38 40.37 C77.63 39.39, 79.72 38.35, 80.99 37.95 M0 0 C-0.77 1.61, -3.6 5.24, -4.61 9.66 C-5.62 14.08, -7.02 22.37, -6.05 26.53 C-5.09 30.68, -2.4 32.12, 1.15 34.6 C4.71 37.07, 9.66 40.05, 15.28 41.38 C20.9 42.7, 28.18 42.12, 34.89 42.53 C41.59 42.94, 49.09 44.19, 55.5 43.83 C61.92 43.47, 69.13 41.35, 73.38 40.37 C77.63 39.39, 79.72 38.35, 80.99 37.95"
        stroke="#1e1e1e" stroke-width="4" fill="none"></path>
    </g>
  </g>
  <mask></mask>
  <g stroke-linecap="round">
    <g transform="translate(24.51660762294432 158.56364031720113) rotate(0 56.05073241737682 21.60885413534311)">
      <path
        d="M0 0 C-0.67 1.66, -3.7 6.22, -4.04 9.95 C-4.37 13.67, -3.22 18.72, -2.02 22.35 C-0.82 25.97, -0.02 29.36, 3.17 31.72 C6.37 34.07, 10.5 35.68, 17.16 36.47 C23.81 37.27, 36.35 37.24, 43.11 36.47 C49.86 35.7, 51.56 31.69, 57.67 31.86 C63.77 32.03, 74.05 35.83, 79.72 37.48 C85.39 39.14, 88.01 40.87, 91.69 41.81 C95.37 42.75, 97.7 43.51, 101.78 43.11 C105.87 42.7, 113.79 39.98, 116.2 39.36 M0 0 C-0.67 1.66, -3.7 6.22, -4.04 9.95 C-4.37 13.67, -3.22 18.72, -2.02 22.35 C-0.82 25.97, -0.02 29.36, 3.17 31.72 C6.37 34.07, 10.5 35.68, 17.16 36.47 C23.81 37.27, 36.35 37.24, 43.11 36.47 C49.86 35.7, 51.56 31.69, 57.67 31.86 C63.77 32.03, 74.05 35.83, 79.72 37.48 C85.39 39.14, 88.01 40.87, 91.69 41.81 C95.37 42.75, 97.7 43.51, 101.78 43.11 C105.87 42.7, 113.79 39.98, 116.2 39.36"
        stroke="#1e1e1e" stroke-width="4" fill="none"></path>
    </g>
  </g>
  <mask></mask>
  <g stroke-linecap="round">
    <g transform="translate(15.434185932305809 191.4333569118935) rotate(0 54.01224757181217 8.073514692277058)">
      <path
        d="M0 0 C0.1 1.01, -0.55 4.06, 0.58 6.05 C1.71 8.05, 4.25 10.55, 6.78 11.97 C9.3 13.38, 10.31 14.22, 15.71 14.56 C21.12 14.9, 32.17 13.72, 39.21 13.98 C46.25 14.25, 51.78 16.12, 57.95 16.15 C64.13 16.17, 70.76 15.33, 76.26 14.13 C81.77 12.93, 85.66 9.57, 90.97 8.94 C96.28 8.31, 105.26 10.11, 108.12 10.35 M0 0 C0.1 1.01, -0.55 4.06, 0.58 6.05 C1.71 8.05, 4.25 10.55, 6.78 11.97 C9.3 13.38, 10.31 14.22, 15.71 14.56 C21.12 14.9, 32.17 13.72, 39.21 13.98 C46.25 14.25, 51.78 16.12, 57.95 16.15 C64.13 16.17, 70.76 15.33, 76.26 14.13 C81.77 12.93, 85.66 9.57, 90.97 8.94 C96.28 8.31, 105.26 10.11, 108.12 10.35"
        stroke="#1e1e1e" stroke-width="4" fill="none"></path>
    </g>
  </g>
  <mask></mask>
  <g stroke-linecap="round">
    <g transform="translate(11.561612563242306 202.48546145149157) rotate(0 18.94519162882125 6.625819408350253)">
      <path
        d="M0 0 C0.43 1.57, 0.64 7.25, 2.6 9.44 C4.56 11.63, 8.34 12.79, 11.76 13.13 C15.18 13.47, 18.76 13.13, 23.12 11.49 C27.47 9.85, 35.43 4.65, 37.89 3.28 M0 0 C0.43 1.57, 0.64 7.25, 2.6 9.44 C4.56 11.63, 8.34 12.79, 11.76 13.13 C15.18 13.47, 18.76 13.13, 23.12 11.49 C27.47 9.85, 35.43 4.65, 37.89 3.28"
        stroke="#1e1e1e" stroke-width="4" fill="none"></path>
    </g>
  </g>
  <mask></mask>
  <g stroke-linecap="round">
    <g transform="translate(25.65731708873409 215.73153762789116) rotate(0 24.617123168904982 -2.0620916972920895)">
      <path
        d="M0 0 C0.96 0.44, 2.82 2.02, 5.75 2.61 C8.68 3.21, 13.14 4.49, 17.6 3.57 C22.06 2.66, 28.79 -1.15, 32.5 -2.88 C36.22 -4.6, 37.12 -5.94, 39.91 -6.8 C42.7 -7.65, 47.68 -7.81, 49.23 -8.02 M0 0 C0.96 0.44, 2.82 2.02, 5.75 2.61 C8.68 3.21, 13.14 4.49, 17.6 3.57 C22.06 2.66, 28.79 -1.15, 32.5 -2.88 C36.22 -4.6, 37.12 -5.94, 39.91 -6.8 C42.7 -7.65, 47.68 -7.81, 49.23 -8.02"
        stroke="#1e1e1e" stroke-width="4" fill="none"></path>
    </g>
  </g>
  <mask></mask>
  <g stroke-linecap="round">
    <g transform="translate(130.0304535075511 56.70076505120596) rotate(0 -3.0480022153958544 48.89440868724432)">
      <path
        d="M0 0 C-0.7 1.08, -3.13 3.86, -4.21 6.47 C-5.29 9.08, -4.64 13.34, -6.47 15.65 C-8.3 17.95, -12.91 18.28, -15.19 20.31 C-17.48 22.34, -17.68 26.18, -20.16 27.83 C-22.64 29.49, -26.1 27.63, -30.09 30.24 C-34.08 32.85, -39.77 36.08, -44.08 43.48 C-48.39 50.88, -52.71 67.3, -55.97 74.62 C-59.22 81.94, -62.89 83.82, -63.64 87.41 C-64.39 90.99, -64.34 94.68, -60.48 96.13 C-56.62 97.59, -47.54 97.16, -40.47 96.13 C-33.4 95.11, -24.17 91.9, -18.05 89.97 C-11.94 88.04, -8.78 85.55, -3.76 84.55 C1.25 83.55, 5.06 83.8, 12.04 83.95 C19.01 84.1, 30.41 83.15, 38.06 85.45 C45.71 87.76, 54.61 95.73, 57.92 97.79 M0 0 C-0.7 1.08, -3.13 3.86, -4.21 6.47 C-5.29 9.08, -4.64 13.34, -6.47 15.65 C-8.3 17.95, -12.91 18.28, -15.19 20.31 C-17.48 22.34, -17.68 26.18, -20.16 27.83 C-22.64 29.49, -26.1 27.63, -30.09 30.24 C-34.08 32.85, -39.77 36.08, -44.08 43.48 C-48.39 50.88, -52.71 67.3, -55.97 74.62 C-59.22 81.94, -62.89 83.82, -63.64 87.41 C-64.39 90.99, -64.34 94.68, -60.48 96.13 C-56.62 97.59, -47.54 97.16, -40.47 96.13 C-33.4 95.11, -24.17 91.9, -18.05 89.97 C-11.94 88.04, -8.78 85.55, -3.76 84.55 C1.25 83.55, 5.06 83.8, 12.04 83.95 C19.01 84.1, 30.41 83.15, 38.06 85.45 C45.71 87.76, 54.61 95.73, 57.92 97.79"
        stroke="#1e1e1e" stroke-width="4" fill="none"></path>
    </g>
  </g>
  <mask></mask>
  <g stroke-linecap="round">
    <g transform="translate(108.7647758045232 85.24487036790924) rotate(0 278.6376315911614 53.29715838257607)">
      <path
        d="M0 0 C-1.23 1.01, -5.11 3.14, -7.39 6.08 C-9.67 9.02, -11.26 14.24, -13.71 17.64 C-16.15 21.04, -20.84 23.64, -22.05 26.46 C-23.26 29.28, -23.7 33.53, -20.98 34.57 C-18.26 35.6, -9.18 31.9, -5.72 32.66 C-2.26 33.41, -1.75 36.69, -0.24 39.09 C1.27 41.5, 0.34 46.39, 3.34 47.08 C6.34 47.78, 13.51 43.19, 17.76 43.27 C22.01 43.35, 25.29 46.54, 28.84 47.56 C32.4 48.57, 33.99 49.44, 39.09 49.35 C44.2 49.25, 53.62 46.46, 59.48 46.96 C65.34 47.46, 70.82 48.04, 74.26 52.32 C77.69 56.61, 78.47 66.69, 80.08 72.65 C81.69 78.6, 81.16 84, 83.93 88.06 C86.7 92.11, 90.26 95.82, 96.71 96.99 C103.16 98.15, 113.14 97.34, 122.63 95.06 C132.11 92.78, 139.44 86.1, 153.62 83.33 C167.8 80.56, 195.67 76.79, 207.72 78.43 C219.77 80.06, 221.06 89.82, 225.93 93.13 C230.81 96.45, 230.09 98.33, 236.98 98.3 C243.87 98.26, 254.08 96.34, 267.27 92.92 C280.46 89.5, 304.23 81, 316.12 77.78 C328 74.56, 331.95 72.57, 338.59 73.63 C345.22 74.69, 350.07 81.61, 355.93 84.13 C361.79 86.65, 369.73 86.65, 373.76 88.77 C377.79 90.89, 375.71 95, 380.11 96.83 C384.5 98.66, 392.48 100.25, 400.14 99.76 C407.79 99.27, 418.24 94.52, 426.03 93.9 C433.81 93.28, 437.27 93.93, 446.84 96.04 C456.41 98.16, 471.01 106.63, 483.46 106.59 C495.91 106.56, 510.73 99.49, 521.52 95.84 C532.31 92.18, 540.49 86.53, 548.21 84.67 C555.93 82.8, 562.52 83.91, 567.86 84.67 C573.21 85.42, 578.21 88.46, 580.27 89.22 M0 0 C-1.23 1.01, -5.11 3.14, -7.39 6.08 C-9.67 9.02, -11.26 14.24, -13.71 17.64 C-16.15 21.04, -20.84 23.64, -22.05 26.46 C-23.26 29.28, -23.7 33.53, -20.98 34.57 C-18.26 35.6, -9.18 31.9, -5.72 32.66 C-2.26 33.41, -1.75 36.69, -0.24 39.09 C1.27 41.5, 0.34 46.39, 3.34 47.08 C6.34 47.78, 13.51 43.19, 17.76 43.27 C22.01 43.35, 25.29 46.54, 28.84 47.56 C32.4 48.57, 33.99 49.44, 39.09 49.35 C44.2 49.25, 53.62 46.46, 59.48 46.96 C65.34 47.46, 70.82 48.04, 74.26 52.32 C77.69 56.61, 78.47 66.69, 80.08 72.65 C81.69 78.6, 81.16 84, 83.93 88.06 C86.7 92.11, 90.26 95.82, 96.71 96.99 C103.16 98.15, 113.14 97.34, 122.63 95.06 C132.11 92.78, 139.44 86.1, 153.62 83.33 C167.8 80.56, 195.67 76.79, 207.72 78.43 C219.77 80.06, 221.06 89.82, 225.93 93.13 C230.81 96.45, 230.09 98.33, 236.98 98.3 C243.87 98.26, 254.08 96.34, 267.27 92.92 C280.46 89.5, 304.23 81, 316.12 77.78 C328 74.56, 331.95 72.57, 338.59 73.63 C345.22 74.69, 350.07 81.61, 355.93 84.13 C361.79 86.65, 369.73 86.65, 373.76 88.77 C377.79 90.89, 375.71 95, 380.11 96.83 C384.5 98.66, 392.48 100.25, 400.14 99.76 C407.79 99.27, 418.24 94.52, 426.03 93.9 C433.81 93.28, 437.27 93.93, 446.84 96.04 C456.41 98.16, 471.01 106.63, 483.46 106.59 C495.91 106.56, 510.73 99.49, 521.52 95.84 C532.31 92.18, 540.49 86.53, 548.21 84.67 C555.93 82.8, 562.52 83.91, 567.86 84.67 C573.21 85.42, 578.21 88.46, 580.27 89.22"
        stroke="#1e1e1e" stroke-width="4" fill="none"></path>
    </g>
  </g>
  <mask></mask>
  <g stroke-linecap="round">
    <g transform="translate(166.71474489880438 51.935102040382844) rotate(0 237.4752817949102 63.189612897007464)">
      <path
        d="M0 0 C-0.58 0.51, -3.75 1.09, -3.48 3.07 C-3.2 5.04, 0.24 8.89, 1.64 11.86 C3.03 14.82, 6.95 17.41, 4.91 20.85 C2.86 24.29, -6.85 28.14, -10.63 32.5 C-14.41 36.86, -18.36 43.06, -17.78 47.02 C-17.2 50.97, -10.49 54.44, -7.15 56.21 C-3.82 57.99, -1.67 55.98, 2.25 57.65 C6.17 59.31, 12.23 61.56, 16.35 66.23 C20.48 70.9, 23.13 80.95, 26.98 85.65 C30.83 90.35, 36.32 90.96, 39.45 94.44 C42.59 97.91, 41.77 104.01, 45.79 106.5 C49.81 108.99, 56.45 110.52, 63.57 109.36 C70.69 108.2, 80.74 101.59, 88.51 99.55 C96.28 97.51, 105 97.61, 110.18 97.1 C115.36 96.59, 115.6 95.22, 119.58 96.48 C123.57 97.74, 128.58 104.01, 134.1 104.66 C139.62 105.31, 146.84 100.1, 152.7 100.37 C158.56 100.64, 164.62 105.82, 169.26 106.3 C173.89 106.77, 176.72 102.79, 180.5 103.23 C184.28 103.67, 187.04 108.24, 191.95 108.95 C196.85 109.67, 202.81 110.18, 209.93 107.52 C217.05 104.86, 226.49 96.04, 234.67 93.01 C242.85 89.98, 251.05 88.49, 258.99 89.33 C266.94 90.17, 272.36 93.89, 282.32 98.04 C292.28 102.2, 308.41 110.65, 318.76 114.26 C329.1 117.86, 335.2 119.74, 344.39 119.66 C353.57 119.58, 366.78 115.03, 373.88 113.79 C380.98 112.56, 381.8 111.4, 387 112.25 C392.2 113.1, 397.89 116.55, 405.07 118.89 C412.25 121.23, 422.02 125.72, 430.08 126.3 C438.14 126.88, 445.97 124.22, 453.43 122.35 C460.89 120.48, 468.26 115.97, 474.82 115.08 C481.38 114.19, 489.8 116.68, 492.79 117 M0 0 C-0.58 0.51, -3.75 1.09, -3.48 3.07 C-3.2 5.04, 0.24 8.89, 1.64 11.86 C3.03 14.82, 6.95 17.41, 4.91 20.85 C2.86 24.29, -6.85 28.14, -10.63 32.5 C-14.41 36.86, -18.36 43.06, -17.78 47.02 C-17.2 50.97, -10.49 54.44, -7.15 56.21 C-3.82 57.99, -1.67 55.98, 2.25 57.65 C6.17 59.31, 12.23 61.56, 16.35 66.23 C20.48 70.9, 23.13 80.95, 26.98 85.65 C30.83 90.35, 36.32 90.96, 39.45 94.44 C42.59 97.91, 41.77 104.01, 45.79 106.5 C49.81 108.99, 56.45 110.52, 63.57 109.36 C70.69 108.2, 80.74 101.59, 88.51 99.55 C96.28 97.51, 105 97.61, 110.18 97.1 C115.36 96.59, 115.6 95.22, 119.58 96.48 C123.57 97.74, 128.58 104.01, 134.1 104.66 C139.62 105.31, 146.84 100.1, 152.7 100.37 C158.56 100.64, 164.62 105.82, 169.26 106.3 C173.89 106.77, 176.72 102.79, 180.5 103.23 C184.28 103.67, 187.04 108.24, 191.95 108.95 C196.85 109.67, 202.81 110.18, 209.93 107.52 C217.05 104.86, 226.49 96.04, 234.67 93.01 C242.85 89.98, 251.05 88.49, 258.99 89.33 C266.94 90.17, 272.36 93.89, 282.32 98.04 C292.28 102.2, 308.41 110.65, 318.76 114.26 C329.1 117.86, 335.2 119.74, 344.39 119.66 C353.57 119.58, 366.78 115.03, 373.88 113.79 C380.98 112.56, 381.8 111.4, 387 112.25 C392.2 113.1, 397.89 116.55, 405.07 118.89 C412.25 121.23, 422.02 125.72, 430.08 126.3 C438.14 126.88, 445.97 124.22, 453.43 122.35 C460.89 120.48, 468.26 115.97, 474.82 115.08 C481.38 114.19, 489.8 116.68, 492.79 117"
        stroke="#1e1e1e" stroke-width="4" fill="none"></path>
    </g>
  </g>
  <mask></mask>
  <g stroke-linecap="round">
    <g transform="translate(134.65326013603135 199.74534189070437) rotate(0 275.73566217000894 7.981306539826619)">
      <path
        d="M0 0 C3.05 -1.91, 13.16 -9.82, 18.3 -11.44 C23.45 -13.06, 27.84 -12.44, 30.89 -9.72 C33.94 -7.01, 34.99 -0.86, 36.61 4.86 C38.23 10.58, 38.42 18.97, 40.61 24.6 C42.81 30.22, 45.24 35.89, 49.77 38.61 C54.29 41.33, 60.59 42.47, 67.78 40.9 C74.98 39.33, 85.66 34.18, 92.95 29.17 C100.25 24.17, 104.92 14.82, 111.54 10.87 C118.17 6.91, 125.8 7.15, 132.71 5.43 C139.62 3.72, 146.29 1, 153.01 0.57 C159.74 0.14, 167.51 1.53, 173.03 2.86 C178.56 4.19, 181.71 4.77, 186.19 8.58 C190.67 12.39, 192.91 23.31, 199.92 25.74 C206.93 28.17, 221.75 25.17, 228.23 23.17 C234.72 21.16, 232.24 16.87, 238.82 13.73 C245.39 10.58, 259.27 8.1, 267.7 4.29 C276.14 0.48, 282.19 -6.58, 289.44 -9.15 C296.69 -11.73, 303.45 -12.11, 311.18 -11.15 C318.9 -10.2, 326.94 -8.46, 335.77 -3.43 C344.61 1.6, 357.94 13.98, 364.19 19.04 C370.44 24.1, 368.06 26.35, 373.28 26.92 C378.5 27.49, 383.85 26.45, 395.5 22.47 C407.16 18.5, 430.49 6.38, 443.18 3.08 C455.88 -0.22, 462.68 4.06, 471.67 2.67 C480.66 1.29, 488.4 -0.86, 497.13 -5.2 C505.85 -9.55, 514.94 -19.99, 524 -23.39 C533.05 -26.79, 546.89 -25.24, 551.47 -25.61 M0 0 C3.05 -1.91, 13.16 -9.82, 18.3 -11.44 C23.45 -13.06, 27.84 -12.44, 30.89 -9.72 C33.94 -7.01, 34.99 -0.86, 36.61 4.86 C38.23 10.58, 38.42 18.97, 40.61 24.6 C42.81 30.22, 45.24 35.89, 49.77 38.61 C54.29 41.33, 60.59 42.47, 67.78 40.9 C74.98 39.33, 85.66 34.18, 92.95 29.17 C100.25 24.17, 104.92 14.82, 111.54 10.87 C118.17 6.91, 125.8 7.15, 132.71 5.43 C139.62 3.72, 146.29 1, 153.01 0.57 C159.74 0.14, 167.51 1.53, 173.03 2.86 C178.56 4.19, 181.71 4.77, 186.19 8.58 C190.67 12.39, 192.91 23.31, 199.92 25.74 C206.93 28.17, 221.75 25.17, 228.23 23.17 C234.72 21.16, 232.24 16.87, 238.82 13.73 C245.39 10.58, 259.27 8.1, 267.7 4.29 C276.14 0.48, 282.19 -6.58, 289.44 -9.15 C296.69 -11.73, 303.45 -12.11, 311.18 -11.15 C318.9 -10.2, 326.94 -8.46, 335.77 -3.43 C344.61 1.6, 357.94 13.98, 364.19 19.04 C370.44 24.1, 368.06 26.35, 373.28 26.92 C378.5 27.49, 383.85 26.45, 395.5 22.47 C407.16 18.5, 430.49 6.38, 443.18 3.08 C455.88 -0.22, 462.68 4.06, 471.67 2.67 C480.66 1.29, 488.4 -0.86, 497.13 -5.2 C505.85 -9.55, 514.94 -19.99, 524 -23.39 C533.05 -26.79, 546.89 -25.24, 551.47 -25.61"
        stroke="#1e1e1e" stroke-width="4" fill="none"></path>
    </g>
  </g>
  <mask></mask>
  <g stroke-linecap="round">
    <g transform="translate(76.5553964747105 125.2650245419627) rotate(0 15.182597916436862 11.078243770262816)">
      <path
        d="M0 0 C-0.2 1.79, -1.34 7.52, -1.21 10.74 C-1.07 13.97, -2.26 18.24, 0.81 19.34 C3.87 20.43, 12.04 16.85, 17.19 17.32 C22.34 17.79, 29.27 21.35, 31.69 22.16 M0 0 C-0.2 1.79, -1.34 7.52, -1.21 10.74 C-1.07 13.97, -2.26 18.24, 0.81 19.34 C3.87 20.43, 12.04 16.85, 17.19 17.32 C22.34 17.79, 29.27 21.35, 31.69 22.16"
        stroke="#1e1e1e" stroke-width="4" fill="none"></path>
    </g>
  </g>
  <mask></mask>
  <g stroke-linecap="round">
    <g transform="translate(223.18720541280072 47.2953137850418) rotate(0 261.7604105375933 66.20674689608131)">
      <path
        d="M0 0 C2.73 2.07, 13.03 7.18, 16.39 12.41 C19.74 17.63, 22.51 24.11, 20.13 31.37 C17.75 38.62, 5.81 49.08, 2.11 55.94 C-1.6 62.81, -4.29 68.55, -2.11 72.56 C0.08 76.58, 5.11 80.29, 15.21 80.05 C25.32 79.82, 45.25 73.38, 58.52 71.16 C71.78 68.94, 85.87 65.58, 94.8 66.71 C103.74 67.84, 108.14 74.24, 112.12 77.95 C116.1 81.65, 114.03 86.49, 118.68 88.95 C123.32 91.41, 131.2 94.18, 139.98 92.69 C148.76 91.21, 165.26 83.64, 171.34 80.05 C177.43 76.47, 171.77 72.8, 176.49 71.16 C181.21 69.52, 191.71 69.75, 199.67 70.22 C207.63 70.69, 217.93 71.39, 224.25 73.97 C230.57 76.54, 232.36 82.75, 237.59 85.67 C242.82 88.6, 250.77 90.63, 255.61 91.52 C260.45 92.42, 258.77 88.75, 266.61 91.06 C274.46 93.36, 293.89 102.44, 302.66 105.33 C311.43 108.23, 312.97 108.11, 319.22 108.42 C325.48 108.74, 334.73 108.16, 340.21 107.24 C345.69 106.31, 347.47 101.3, 352.09 102.88 C356.71 104.46, 361.92 113.7, 367.92 116.74 C373.93 119.77, 378.75 121.82, 388.12 121.09 C397.49 120.37, 412.01 112.91, 424.15 112.38 C436.29 111.85, 449.22 114.89, 460.97 117.93 C472.72 120.96, 485.98 128.42, 494.62 130.6 C503.27 132.77, 507.76 133.1, 512.84 130.99 C517.92 128.88, 523.26 123.67, 525.11 117.93 C526.96 112.18, 527.07 103.8, 523.92 96.54 C520.78 89.29, 511.58 79.43, 506.24 74.41 C500.9 69.4, 494.27 67.8, 491.87 66.47 M0 0 C2.73 2.07, 13.03 7.18, 16.39 12.41 C19.74 17.63, 22.51 24.11, 20.13 31.37 C17.75 38.62, 5.81 49.08, 2.11 55.94 C-1.6 62.81, -4.29 68.55, -2.11 72.56 C0.08 76.58, 5.11 80.29, 15.21 80.05 C25.32 79.82, 45.25 73.38, 58.52 71.16 C71.78 68.94, 85.87 65.58, 94.8 66.71 C103.74 67.84, 108.14 74.24, 112.12 77.95 C116.1 81.65, 114.03 86.49, 118.68 88.95 C123.32 91.41, 131.2 94.18, 139.98 92.69 C148.76 91.21, 165.26 83.64, 171.34 80.05 C177.43 76.47, 171.77 72.8, 176.49 71.16 C181.21 69.52, 191.71 69.75, 199.67 70.22 C207.63 70.69, 217.93 71.39, 224.25 73.97 C230.57 76.54, 232.36 82.75, 237.59 85.67 C242.82 88.6, 250.77 90.63, 255.61 91.52 C260.45 92.42, 258.77 88.75, 266.61 91.06 C274.46 93.36, 293.89 102.44, 302.66 105.33 C311.43 108.23, 312.97 108.11, 319.22 108.42 C325.48 108.74, 334.73 108.16, 340.21 107.24 C345.69 106.31, 347.47 101.3, 352.09 102.88 C356.71 104.46, 361.92 113.7, 367.92 116.74 C373.93 119.77, 378.75 121.82, 388.12 121.09 C397.49 120.37, 412.01 112.91, 424.15 112.38 C436.29 111.85, 449.22 114.89, 460.97 117.93 C472.72 120.96, 485.98 128.42, 494.62 130.6 C503.27 132.77, 507.76 133.1, 512.84 130.99 C517.92 128.88, 523.26 123.67, 525.11 117.93 C526.96 112.18, 527.07 103.8, 523.92 96.54 C520.78 89.29, 511.58 79.43, 506.24 74.41 C500.9 69.4, 494.27 67.8, 491.87 66.47"
        stroke="#1e1e1e" stroke-width="4" fill="none"></path>
    </g>
  </g>
  <mask></mask>
  <g stroke-linecap="round">
    <g transform="translate(228.83516832835903 36.25932075165838) rotate(0 179.71347945397088 62.84565390378202)">
      <path
        d="M0 0 C2.34 1.86, 10.07 5.06, 14.02 11.14 C17.97 17.22, 22.41 28.96, 23.73 36.47 C25.04 43.97, 22.49 51.3, 21.91 56.18 C21.33 61.06, 19.33 62.48, 20.24 65.74 C21.15 69, 22.59 74.48, 27.37 75.75 C32.14 77.01, 41.22 75.17, 48.9 73.32 C56.59 71.48, 65.76 65.84, 73.47 64.68 C81.18 63.51, 88.54 63.97, 95.16 66.34 C101.78 68.72, 107.88 75.72, 113.21 78.93 C118.54 82.14, 120.87 85.45, 127.16 85.61 C133.46 85.76, 143.79 81.94, 150.97 79.84 C158.15 77.74, 162.75 73.52, 170.23 73.02 C177.72 72.51, 188.76 76.43, 195.87 76.81 C202.97 77.19, 206.26 73.57, 212.85 75.29 C219.44 77.01, 228.63 84.19, 235.39 87.14 C242.15 90.09, 247.3 90.56, 253.41 93.01 C259.52 95.45, 264.86 100.06, 272.06 101.81 C279.25 103.55, 290.32 101.56, 296.57 103.48 C302.82 105.4, 303.73 111.34, 309.56 113.33 C315.39 115.32, 325.69 115.53, 331.56 115.42 C337.43 115.32, 340.12 110.99, 344.76 112.7 C349.4 114.41, 356.98 123.53, 359.43 125.69 M0 0 C2.34 1.86, 10.07 5.06, 14.02 11.14 C17.97 17.22, 22.41 28.96, 23.73 36.47 C25.04 43.97, 22.49 51.3, 21.91 56.18 C21.33 61.06, 19.33 62.48, 20.24 65.74 C21.15 69, 22.59 74.48, 27.37 75.75 C32.14 77.01, 41.22 75.17, 48.9 73.32 C56.59 71.48, 65.76 65.84, 73.47 64.68 C81.18 63.51, 88.54 63.97, 95.16 66.34 C101.78 68.72, 107.88 75.72, 113.21 78.93 C118.54 82.14, 120.87 85.45, 127.16 85.61 C133.46 85.76, 143.79 81.94, 150.97 79.84 C158.15 77.74, 162.75 73.52, 170.23 73.02 C177.72 72.51, 188.76 76.43, 195.87 76.81 C202.97 77.19, 206.26 73.57, 212.85 75.29 C219.44 77.01, 228.63 84.19, 235.39 87.14 C242.15 90.09, 247.3 90.56, 253.41 93.01 C259.52 95.45, 264.86 100.06, 272.06 101.81 C279.25 103.55, 290.32 101.56, 296.57 103.48 C302.82 105.4, 303.73 111.34, 309.56 113.33 C315.39 115.32, 325.69 115.53, 331.56 115.42 C337.43 115.32, 340.12 110.99, 344.76 112.7 C349.4 114.41, 356.98 123.53, 359.43 125.69"
        stroke="#1e1e1e" stroke-width="4" fill="none"></path>
    </g>
  </g>
  <mask></mask>
  <g stroke-linecap="round">
    <g transform="translate(251.7321858960422 28.74017041668594) rotate(0 137.61399453044328 55.7627237495326)">
      <path
        d="M0 0 C0.25 2.18, -0.08 8.86, 1.48 13.11 C3.05 17.35, 7.17 19.7, 9.4 25.47 C11.62 31.24, 12.08 42.04, 14.84 47.73 C17.6 53.41, 20.9 57, 25.96 59.6 C31.03 62.19, 37.71 63.14, 45.25 63.3 C52.8 63.47, 64.17 59.47, 71.22 60.58 C78.27 61.7, 82.06 66.97, 87.54 69.98 C93.02 72.99, 95.86 77.85, 104.11 78.64 C112.35 79.42, 127.56 75.71, 137 74.68 C146.43 73.65, 150.51 71.34, 160.74 72.45 C170.96 73.57, 187.85 78.55, 198.32 81.36 C208.79 84.16, 216.91 86.14, 223.55 89.27 C230.18 92.4, 231.38 97.84, 238.14 100.15 C244.89 102.46, 257.92 101.22, 264.1 103.12 C270.28 105.01, 273.37 110.12, 275.23 111.53 M0 0 C0.25 2.18, -0.08 8.86, 1.48 13.11 C3.05 17.35, 7.17 19.7, 9.4 25.47 C11.62 31.24, 12.08 42.04, 14.84 47.73 C17.6 53.41, 20.9 57, 25.96 59.6 C31.03 62.19, 37.71 63.14, 45.25 63.3 C52.8 63.47, 64.17 59.47, 71.22 60.58 C78.27 61.7, 82.06 66.97, 87.54 69.98 C93.02 72.99, 95.86 77.85, 104.11 78.64 C112.35 79.42, 127.56 75.71, 137 74.68 C146.43 73.65, 150.51 71.34, 160.74 72.45 C170.96 73.57, 187.85 78.55, 198.32 81.36 C208.79 84.16, 216.91 86.14, 223.55 89.27 C230.18 92.4, 231.38 97.84, 238.14 100.15 C244.89 102.46, 257.92 101.22, 264.1 103.12 C270.28 105.01, 273.37 110.12, 275.23 111.53"
        stroke="#1e1e1e" stroke-width="4" fill="none"></path>
    </g>
  </g>
  <mask></mask>
  <g stroke-linecap="round">
    <g transform="translate(309.8441153024296 33.43858173039371) rotate(0 57.98258904037698 27.08545359058553)">
      <path
        d="M0 0 C-1.32 0.87, -8.24 2.35, -7.91 5.19 C-7.58 8.04, -1.07 14.38, 1.98 17.06 C5.03 19.74, 7.91 19.45, 10.39 21.27 C12.86 23.08, 12.24 26.29, 16.82 27.94 C21.39 29.59, 30.95 28.81, 37.83 31.16 C44.72 33.51, 52.38 38.41, 58.11 42.04 C63.84 45.67, 65.24 50.94, 72.21 52.92 C79.17 54.9, 91.29 53.95, 99.9 53.91 C108.52 53.87, 119.89 52.88, 123.89 52.67 M0 0 C-1.32 0.87, -8.24 2.35, -7.91 5.19 C-7.58 8.04, -1.07 14.38, 1.98 17.06 C5.03 19.74, 7.91 19.45, 10.39 21.27 C12.86 23.08, 12.24 26.29, 16.82 27.94 C21.39 29.59, 30.95 28.81, 37.83 31.16 C44.72 33.51, 52.38 38.41, 58.11 42.04 C63.84 45.67, 65.24 50.94, 72.21 52.92 C79.17 54.9, 91.29 53.95, 99.9 53.91 C108.52 53.87, 119.89 52.88, 123.89 52.67"
        stroke="#1e1e1e" stroke-width="4" fill="none"></path>
    </g>
  </g>
  <mask></mask>
  <g stroke-linecap="round">
    <g transform="translate(308.36040646652236 27.00917677479265) rotate(0 89.71040791791074 50.55489030260833)">
      <path
        d="M0 0 C0.25 1.03, -0.54 4.57, 1.48 6.18 C3.5 7.79, 8.94 7.75, 12.12 9.64 C15.29 11.54, 16.77 14.26, 20.52 17.56 C24.28 20.85, 28.56 27.12, 34.62 29.43 C40.68 31.73, 50.36 29.22, 56.88 31.41 C63.39 33.59, 67.06 39.81, 73.69 42.53 C80.33 45.25, 90.34 47.11, 96.69 47.73 C103.04 48.34, 107.03 44.51, 111.77 46.24 C116.51 47.97, 121.13 54.11, 125.13 58.11 C129.12 62.11, 130.81 67.06, 135.76 70.23 C140.71 73.4, 147.52 72.01, 154.8 77.15 C162.08 82.3, 175.32 97.12, 179.42 101.11 M0 0 C0.25 1.03, -0.54 4.57, 1.48 6.18 C3.5 7.79, 8.94 7.75, 12.12 9.64 C15.29 11.54, 16.77 14.26, 20.52 17.56 C24.28 20.85, 28.56 27.12, 34.62 29.43 C40.68 31.73, 50.36 29.22, 56.88 31.41 C63.39 33.59, 67.06 39.81, 73.69 42.53 C80.33 45.25, 90.34 47.11, 96.69 47.73 C103.04 48.34, 107.03 44.51, 111.77 46.24 C116.51 47.97, 121.13 54.11, 125.13 58.11 C129.12 62.11, 130.81 67.06, 135.76 70.23 C140.71 73.4, 147.52 72.01, 154.8 77.15 C162.08 82.3, 175.32 97.12, 179.42 101.11"
        stroke="#1e1e1e" stroke-width="4" fill="none"></path>
    </g>
  </g>
  <mask></mask>
  <g stroke-linecap="round">
    <g transform="translate(595.3854534013017 165.51138805274968) rotate(0 -31.170018479004966 -49.00672886473967)">
      <path
        d="M0 0 C-2.05 -3.2, -7.78 -14.01, -12.33 -19.22 C-16.88 -24.43, -20.6 -28.15, -27.32 -31.26 C-34.03 -34.37, -46.4 -35.19, -52.62 -37.89 C-58.85 -40.6, -63.06 -44.49, -64.66 -47.48 C-66.26 -50.47, -66.34 -54.23, -62.2 -55.83 C-58.07 -57.43, -44.84 -55.95, -39.85 -57.06 C-34.85 -58.16, -33.21 -59.92, -32.23 -62.46 C-31.25 -65, -32.48 -68.85, -33.95 -72.29 C-35.42 -75.73, -41.69 -80.81, -41.07 -83.1 C-40.46 -85.39, -34.61 -85.6, -30.26 -86.05 C-25.92 -86.5, -18.14 -84.53, -15.03 -85.8 C-11.92 -87.07, -14.65 -91.63, -11.59 -93.66 C-8.53 -95.7, 0.85 -97.29, 3.34 -98.01 M0 0 C-2.05 -3.2, -7.78 -14.01, -12.33 -19.22 C-16.88 -24.43, -20.6 -28.15, -27.32 -31.26 C-34.03 -34.37, -46.4 -35.19, -52.62 -37.89 C-58.85 -40.6, -63.06 -44.49, -64.66 -47.48 C-66.26 -50.47, -66.34 -54.23, -62.2 -55.83 C-58.07 -57.43, -44.84 -55.95, -39.85 -57.06 C-34.85 -58.16, -33.21 -59.92, -32.23 -62.46 C-31.25 -65, -32.48 -68.85, -33.95 -72.29 C-35.42 -75.73, -41.69 -80.81, -41.07 -83.1 C-40.46 -85.39, -34.61 -85.6, -30.26 -86.05 C-25.92 -86.5, -18.14 -84.53, -15.03 -85.8 C-11.92 -87.07, -14.65 -91.63, -11.59 -93.66 C-8.53 -95.7, 0.85 -97.29, 3.34 -98.01"
        stroke="#1e1e1e" stroke-width="4" fill="none"></path>
    </g>
  </g>
  <mask></mask>
  <g stroke-linecap="round">
    <g transform="translate(580.9961453479409 144.9986229742608) rotate(0 -41.42650818509037 -44.591106770824354)">
      <path
        d="M0 0 C-2.3 -0.8, -8.37 -3.58, -13.79 -4.79 C-19.22 -6, -24.81 -5.72, -32.57 -7.28 C-40.33 -8.85, -51.6 -10.47, -60.35 -14.18 C-69.1 -17.88, -82.61 -25.1, -85.07 -29.51 C-87.53 -33.91, -81.3 -38.48, -75.1 -40.62 C-68.91 -42.76, -52.34 -38.99, -47.9 -42.34 C-43.46 -45.69, -48.89 -55.15, -48.47 -60.73 C-48.06 -66.32, -47.96 -72.26, -45.41 -75.87 C-42.85 -79.48, -38.7 -82.45, -33.15 -82.38 C-27.59 -82.32, -17.08 -76.06, -12.07 -75.49 C-7.06 -74.91, -5.54 -76.65, -3.07 -78.94 C-0.59 -81.22, 1.79 -87.47, 2.76 -89.18 M0 0 C-2.3 -0.8, -8.37 -3.58, -13.79 -4.79 C-19.22 -6, -24.81 -5.72, -32.57 -7.28 C-40.33 -8.85, -51.6 -10.47, -60.35 -14.18 C-69.1 -17.88, -82.61 -25.1, -85.07 -29.51 C-87.53 -33.91, -81.3 -38.48, -75.1 -40.62 C-68.91 -42.76, -52.34 -38.99, -47.9 -42.34 C-43.46 -45.69, -48.89 -55.15, -48.47 -60.73 C-48.06 -66.32, -47.96 -72.26, -45.41 -75.87 C-42.85 -79.48, -38.7 -82.45, -33.15 -82.38 C-27.59 -82.32, -17.08 -76.06, -12.07 -75.49 C-7.06 -74.91, -5.54 -76.65, -3.07 -78.94 C-0.59 -81.22, 1.79 -87.47, 2.76 -89.18"
        stroke="#1e1e1e" stroke-width="4" fill="none"></path>
    </g>
  </g>
  <mask></mask>
  <g stroke-linecap="round">
    <g transform="translate(456.2594158796919 28.73715877147697) rotate(0 22.129235775837742 38.726162607716105)">
      <path
        d="M0 0 C1.13 1.89, 2.6 6.29, 6.81 11.35 C11.02 16.41, 20.95 26.24, 25.25 30.36 C29.55 34.47, 31.21 32.86, 32.63 36.03 C34.04 39.2, 34.04 45.11, 33.76 49.37 C33.48 53.62, 30.17 57.88, 30.92 61.56 C31.68 65.25, 36.08 68.85, 38.3 71.49 C40.52 74.14, 43.27 76.46, 44.26 77.45 M0 0 C1.13 1.89, 2.6 6.29, 6.81 11.35 C11.02 16.41, 20.95 26.24, 25.25 30.36 C29.55 34.47, 31.21 32.86, 32.63 36.03 C34.04 39.2, 34.04 45.11, 33.76 49.37 C33.48 53.62, 30.17 57.88, 30.92 61.56 C31.68 65.25, 36.08 68.85, 38.3 71.49 C40.52 74.14, 43.27 76.46, 44.26 77.45"
        stroke="#1e1e1e" stroke-width="4" fill="none"></path>
    </g>
  </g>
  <mask></mask>
  <g stroke-linecap="round">
    <g transform="translate(448.8971092574875 191.11782681610202) rotate(0 -67.73374352678661 21.079300699163014)">
      <path
        d="M0 0 C-3.16 0.19, -12.16 -1.02, -18.99 1.13 C-25.81 3.28, -34.36 8.5, -40.95 12.89 C-47.54 17.29, -52.19 23.43, -58.52 27.49 C-64.85 31.55, -71.47 34.81, -78.93 37.27 C-86.39 39.72, -95.84 42.94, -103.3 42.23 C-110.76 41.52, -118.35 37.55, -123.71 33.02 C-129.07 28.48, -133.51 18.02, -135.47 15.02 M0 0 C-3.16 0.19, -12.16 -1.02, -18.99 1.13 C-25.81 3.28, -34.36 8.5, -40.95 12.89 C-47.54 17.29, -52.19 23.43, -58.52 27.49 C-64.85 31.55, -71.47 34.81, -78.93 37.27 C-86.39 39.72, -95.84 42.94, -103.3 42.23 C-110.76 41.52, -118.35 37.55, -123.71 33.02 C-129.07 28.48, -133.51 18.02, -135.47 15.02"
        stroke="#1e1e1e" stroke-width="2" fill="none"></path>
    </g>
  </g>
  <mask></mask>
  <g stroke-linecap="round">
    <g transform="translate(478.9082272780952 57.38656692841141) rotate(0 4.6893079953790675 27.972929072593388)">
      <path
        d="M0 0 C1.04 1.72, 6.41 7.24, 6.25 10.31 C6.09 13.39, 1.38 16.23, -0.94 18.44 C-3.26 20.65, -8.8 19.98, -7.66 23.6 C-6.51 27.22, 3.18 35.27, 5.94 40.16 C8.7 45.06, 7.03 50.35, 8.91 52.98 C10.78 55.61, 15.81 55.45, 17.19 55.95 M0 0 C1.04 1.72, 6.41 7.24, 6.25 10.31 C6.09 13.39, 1.38 16.23, -0.94 18.44 C-3.26 20.65, -8.8 19.98, -7.66 23.6 C-6.51 27.22, 3.18 35.27, 5.94 40.16 C8.7 45.06, 7.03 50.35, 8.91 52.98 C10.78 55.61, 15.81 55.45, 17.19 55.95"
        stroke="#1e1e1e" stroke-width="2" fill="none"></path>
    </g>
  </g>
  <mask></mask>
  <g stroke-linecap="round">
    <g transform="translate(518.9316537750874 104.43495947177689) rotate(0 19.794480874094006 16.92292142312499)">
      <path
        d="M0 0 C-1.34 0.7, -7.72 1.64, -8.07 4.21 C-8.42 6.78, -6.69 12.33, -2.1 15.43 C2.48 18.53, 11.17 19.73, 19.47 22.8 C27.77 25.87, 42.99 32, 47.7 33.85 M0 0 C-1.34 0.7, -7.72 1.64, -8.07 4.21 C-8.42 6.78, -6.69 12.33, -2.1 15.43 C2.48 18.53, 11.17 19.73, 19.47 22.8 C27.77 25.87, 42.99 32, 47.7 33.85"
        stroke="#1e1e1e" stroke-width="2" fill="none"></path>
    </g>
  </g>
  <mask></mask>
  <g stroke-linecap="round">
    <g transform="translate(559.1252503665646 67.4798969265612) rotate(0 -11.967959341871165 17.229734569762968)">
      <path
        d="M0 0 C-2.13 0.24, -9.63 -0.52, -12.79 1.44 C-15.96 3.4, -19.77 7.91, -18.98 11.76 C-18.19 15.61, -10.01 21.05, -8.05 24.55 C-6.09 28.06, -4.57 31.16, -7.22 32.81 C-9.87 34.46, -21.15 34.18, -23.94 34.46 M0 0 C-2.13 0.24, -9.63 -0.52, -12.79 1.44 C-15.96 3.4, -19.77 7.91, -18.98 11.76 C-18.19 15.61, -10.01 21.05, -8.05 24.55 C-6.09 28.06, -4.57 31.16, -7.22 32.81 C-9.87 34.46, -21.15 34.18, -23.94 34.46"
        stroke="#1e1e1e" stroke-width="2" fill="none"></path>
    </g>
  </g>
  <mask></mask>
  <g stroke-linecap="round">
    <g transform="translate(527.2366016408541 36.81693899252059) rotate(0 -3.605201606592118 8.868319491077727)">
      <path
        d="M0 0 C-1.45 -0.35, -5.61 -2.48, -8.7 -2.13 C-11.8 -1.77, -17.63 0.03, -18.57 2.13 C-19.5 4.22, -18.08 7.51, -14.31 10.44 C-10.54 13.38, -0.26 18.86, 4.06 19.73 C8.38 20.6, 11.25 18.11, 11.6 15.66 C11.96 13.22, 8.12 7.64, 6.19 5.03 C4.25 2.42, 1.03 0.84, 0 0 M0 0 C-1.45 -0.35, -5.61 -2.48, -8.7 -2.13 C-11.8 -1.77, -17.63 0.03, -18.57 2.13 C-19.5 4.22, -18.08 7.51, -14.31 10.44 C-10.54 13.38, -0.26 18.86, 4.06 19.73 C8.38 20.6, 11.25 18.11, 11.6 15.66 C11.96 13.22, 8.12 7.64, 6.19 5.03 C4.25 2.42, 1.03 0.84, 0 0"
        stroke="#1e1e1e" stroke-width="2" fill="none"></path>
    </g>
  </g>
  <mask></mask>
  <g stroke-linecap="round">
    <g transform="translate(481.95944074414365 39.16236762856897) rotate(0 19.260925275740874 18.446881761961322)">
      <path
        d="M0 0 C1.81 0.21, 7.01 -0.47, 10.83 1.24 C14.65 2.96, 19.27 6.3, 22.91 10.3 C26.55 14.3, 29.48 21.7, 32.68 25.22 C35.87 28.74, 41.67 29.51, 42.09 31.43 C42.5 33.36, 39.13 37.71, 35.16 36.76 C31.2 35.81, 22.94 29.89, 18.29 25.75 C13.64 21.61, 10.89 14.98, 7.28 11.9 C3.67 8.82, -2.16 9.26, -3.37 7.28 C-4.59 5.3, -0.56 1.21, 0 0 M0 0 C1.81 0.21, 7.01 -0.47, 10.83 1.24 C14.65 2.96, 19.27 6.3, 22.91 10.3 C26.55 14.3, 29.48 21.7, 32.68 25.22 C35.87 28.74, 41.67 29.51, 42.09 31.43 C42.5 33.36, 39.13 37.71, 35.16 36.76 C31.2 35.81, 22.94 29.89, 18.29 25.75 C13.64 21.61, 10.89 14.98, 7.28 11.9 C3.67 8.82, -2.16 9.26, -3.37 7.28 C-4.59 5.3, -0.56 1.21, 0 0"
        stroke="#1e1e1e" stroke-width="2" fill="none"></path>
    </g>
  </g>
  <mask></mask>
  <g stroke-linecap="round">
    <g transform="translate(442.32044769824006 84.95666952366082) rotate(0 13.378746735737423 2.3590042034875296)">
      <path
        d="M0 0 C0.21 -1.03, -0.82 -5.26, 1.27 -6.17 C3.36 -7.08, 8.86 -6.84, 12.53 -5.45 C16.19 -4.05, 20.91 -0.57, 23.24 2.18 C25.57 4.93, 27.65 9.98, 26.5 11.07 C25.35 12.16, 20.75 10.56, 16.34 8.71 C11.92 6.87, 2.72 1.45, 0 0 M0 0 C0.21 -1.03, -0.82 -5.26, 1.27 -6.17 C3.36 -7.08, 8.86 -6.84, 12.53 -5.45 C16.19 -4.05, 20.91 -0.57, 23.24 2.18 C25.57 4.93, 27.65 9.98, 26.5 11.07 C25.35 12.16, 20.75 10.56, 16.34 8.71 C11.92 6.87, 2.72 1.45, 0 0"
        stroke="#1e1e1e" stroke-width="2" fill="none"></path>
    </g>
  </g>
  <mask></mask>
  <g stroke-linecap="round">
    <g transform="translate(382.59753355816065 22.69235478187511) rotate(0 26.040779519398257 14.86290376676584)">
      <path
        d="M0 0 C-0.82 0.51, -5.05 1.33, -4.9 3.09 C-4.75 4.84, -1.85 8.99, 0.91 10.53 C3.66 12.07, 8.68 11.1, 11.62 12.34 C14.55 13.58, 15.94 16.79, 18.52 17.97 C21.09 19.15, 23.63 18.88, 27.05 19.42 C30.47 19.97, 36.4 19.64, 39.03 21.24 C41.66 22.84, 40.51 27.86, 42.84 29.04 C45.17 30.22, 50.68 29.8, 53.01 28.32 C55.34 26.84, 57.64 23.66, 56.82 20.15 C56 16.64, 49.56 9.41, 48.11 7.26 M0 0 C-0.82 0.51, -5.05 1.33, -4.9 3.09 C-4.75 4.84, -1.85 8.99, 0.91 10.53 C3.66 12.07, 8.68 11.1, 11.62 12.34 C14.55 13.58, 15.94 16.79, 18.52 17.97 C21.09 19.15, 23.63 18.88, 27.05 19.42 C30.47 19.97, 36.4 19.64, 39.03 21.24 C41.66 22.84, 40.51 27.86, 42.84 29.04 C45.17 30.22, 50.68 29.8, 53.01 28.32 C55.34 26.84, 57.64 23.66, 56.82 20.15 C56 16.64, 49.56 9.41, 48.11 7.26"
        stroke="#1e1e1e" stroke-width="2" fill="none"></path>
    </g>
  </g>
  <mask></mask>
  <g stroke-linecap="round">
    <g transform="translate(401.4765094565446 41.02674483703777) rotate(0 10.530943875621006 9.70546662660422)">
      <path
        d="M0 0 C-1.85 0.82, -8.74 2.78, -11.07 4.9 C-13.4 7.02, -16.67 11.47, -13.98 12.71 C-11.29 13.95, -0.36 11.47, 5.08 12.34 C10.53 13.22, 13.64 16.88, 18.7 17.97 C23.75 19.06, 33.07 20.06, 35.4 18.88 C37.73 17.7, 33.13 12.22, 32.68 10.89 M0 0 C-1.85 0.82, -8.74 2.78, -11.07 4.9 C-13.4 7.02, -16.67 11.47, -13.98 12.71 C-11.29 13.95, -0.36 11.47, 5.08 12.34 C10.53 13.22, 13.64 16.88, 18.7 17.97 C23.75 19.06, 33.07 20.06, 35.4 18.88 C37.73 17.7, 33.13 12.22, 32.68 10.89"
        stroke="#1e1e1e" stroke-width="2" fill="none"></path>
    </g>
  </g>
  <mask></mask>
  <g stroke-linecap="round">
    <g transform="translate(327.0507168248305 62.98575823065403) rotate(0 53.61024299821747 13.329533368860893)">
      <path
        d="M0 0 C2.72 0.57, 10.66 1.68, 16.34 3.39 C22.02 5.11, 29.25 7.46, 34.06 10.31 C38.88 13.16, 41.52 17.85, 45.25 20.49 C48.98 23.13, 50.24 25.16, 56.44 26.15 C62.64 27.13, 73.99 26.4, 82.46 26.4 C90.92 26.4, 103.09 26.19, 107.22 26.15 M0 0 C2.72 0.57, 10.66 1.68, 16.34 3.39 C22.02 5.11, 29.25 7.46, 34.06 10.31 C38.88 13.16, 41.52 17.85, 45.25 20.49 C48.98 23.13, 50.24 25.16, 56.44 26.15 C62.64 27.13, 73.99 26.4, 82.46 26.4 C90.92 26.4, 103.09 26.19, 107.22 26.15"
        stroke="#1e1e1e" stroke-width="2" fill="none"></path>
    </g>
  </g>
  <mask></mask>
  <g stroke-linecap="round">
    <g transform="translate(263.8982740206329 72.15949638954044) rotate(0 13.222203510099689 14.057406847754464)">
      <path
        d="M0 0 C1.14 2.4, 5.99 10.6, 6.83 14.41 C7.68 18.22, 4.21 20.6, 5.05 22.88 C5.89 25.16, 8.32 28.5, 11.89 28.08 C15.45 27.66, 24.02 21.64, 26.44 20.35 M0 0 C1.14 2.4, 5.99 10.6, 6.83 14.41 C7.68 18.22, 4.21 20.6, 5.05 22.88 C5.89 25.16, 8.32 28.5, 11.89 28.08 C15.45 27.66, 24.02 21.64, 26.44 20.35"
        stroke="#1e1e1e" stroke-width="2" fill="none"></path>
    </g>
  </g>
  <mask></mask>
  <g stroke-linecap="round">
    <g transform="translate(144.28731820788562 195.05824468300852) rotate(0 14.211383854415317 10.107288934385906)">
      <path
        d="M0 0 C2.12 -0.51, 9.38 -3.37, 12.73 -3.07 C16.09 -2.77, 17.75 -1, 20.12 1.82 C22.49 4.64, 25.56 10.29, 26.94 13.87 C28.33 17.45, 28.18 21.73, 28.42 23.31 M0 0 C2.12 -0.51, 9.38 -3.37, 12.73 -3.07 C16.09 -2.77, 17.75 -1, 20.12 1.82 C22.49 4.64, 25.56 10.29, 26.94 13.87 C28.33 17.45, 28.18 21.73, 28.42 23.31"
        stroke="#1e1e1e" stroke-width="2" fill="none"></path>
    </g>
  </g>
  <mask></mask>
  <g stroke-linecap="round">
    <g transform="translate(81.86879747963667 91.24751966331314) rotate(0 -15.67026928383666 23.099912406262774)">
      <path
        d="M0 0 C-3.8 1.94, -17.7 7.73, -22.79 11.63 C-27.88 15.53, -29.15 17.65, -30.54 23.41 C-31.94 29.17, -31.06 42.4, -31.16 46.2 M0 0 C-3.8 1.94, -17.7 7.73, -22.79 11.63 C-27.88 15.53, -29.15 17.65, -30.54 23.41 C-31.94 29.17, -31.06 42.4, -31.16 46.2"
        stroke="#1e1e1e" stroke-width="2" fill="none"></path>
    </g>
  </g>
  <mask></mask>
  <g stroke-linecap="round">
    <g transform="translate(632.2524210918245 95.28095269854202) rotate(0 55.24308724108687 19.47233044056952)">
      <path
        d="M0 0 C3.23 1.57, 11.89 7.32, 19.39 9.44 C26.88 11.55, 36.54 11.27, 44.95 12.7 C53.36 14.13, 61.59 15.73, 69.83 18.01 C78.06 20.3, 87.58 22.93, 94.36 26.42 C101.14 29.91, 107.8 36.86, 110.49 38.94 M0 0 C3.23 1.57, 11.89 7.32, 19.39 9.44 C26.88 11.55, 36.54 11.27, 44.95 12.7 C53.36 14.13, 61.59 15.73, 69.83 18.01 C78.06 20.3, 87.58 22.93, 94.36 26.42 C101.14 29.91, 107.8 36.86, 110.49 38.94"
        stroke="#1e1e1e" stroke-width="4" fill="none"></path>
    </g>
  </g>
  <mask></mask>
  <g stroke-linecap="round">
    <g transform="translate(742.6641852501125 176.29824526984703) rotate(0 -36.342181484493494 -0.07093419904072107)">
      <path
        d="M0 0 C-2.23 1.3, -8.2 7.19, -13.4 7.83 C-18.6 8.46, -25.69 5.81, -31.18 3.79 C-36.68 1.78, -41.82 -2.37, -46.36 -4.27 C-50.91 -6.17, -54.07 -6.96, -58.46 -7.59 C-62.84 -8.22, -70.31 -7.98, -72.68 -8.06 M0 0 C-2.23 1.3, -8.2 7.19, -13.4 7.83 C-18.6 8.46, -25.69 5.81, -31.18 3.79 C-36.68 1.78, -41.82 -2.37, -46.36 -4.27 C-50.91 -6.17, -54.07 -6.96, -58.46 -7.59 C-62.84 -8.22, -70.31 -7.98, -72.68 -8.06"
        stroke="#1e1e1e" stroke-width="2" fill="none"></path>
    </g>
  </g>
  <mask></mask>
  <g stroke-linecap="round">
    <g transform="translate(679.7026897582164 175.58681594225527) rotate(0 -37.290753921282885 14.802261776153955)">
      <path
        d="M0 0 C-2.67 0.57, -10.45 0.59, -16.01 3.44 C-21.56 6.28, -28.16 13.28, -33.32 17.07 C-38.48 20.87, -42.92 24.13, -46.95 26.2 C-50.99 28.28, -52.9 29.13, -57.51 29.52 C-62.11 29.92, -71.74 28.73, -74.58 28.58 M0 0 C-2.67 0.57, -10.45 0.59, -16.01 3.44 C-21.56 6.28, -28.16 13.28, -33.32 17.07 C-38.48 20.87, -42.92 24.13, -46.95 26.2 C-50.99 28.28, -52.9 29.13, -57.51 29.52 C-62.11 29.92, -71.74 28.73, -74.58 28.58"
        stroke="#1e1e1e" stroke-width="2" fill="none"></path>
    </g>
  </g>
  <mask></mask>
  <g stroke-linecap="round">
    <g transform="translate(18.69653355778064 214.9565895455089) rotate(0 24.610890142155995 2.2040200247529356)">
      <path
        d="M0 0 C1.96 1.34, 7.88 6.42, 11.73 8.03 C15.58 9.65, 19.3 9.93, 23.08 9.69 C26.86 9.46, 30.07 9.14, 34.43 6.63 C38.79 4.12, 46.76 -3.36, 49.22 -5.36 M0 0 C1.96 1.34, 7.88 6.42, 11.73 8.03 C15.58 9.65, 19.3 9.93, 23.08 9.69 C26.86 9.46, 30.07 9.14, 34.43 6.63 C38.79 4.12, 46.76 -3.36, 49.22 -5.36"
        stroke="#1e1e1e" stroke-width="2" fill="none"></path>
    </g>
  </g>
  <mask></mask>
  <g stroke-linecap="round">
    <g transform="translate(498.15587728733635 19.978805101763555) rotate(0 -16.368005974292828 19.898858193143496)">
      <path
        d="M0 0 C-2.76 -0.37, -12.02 -2.24, -16.56 -2.22 C-21.11 -2.21, -24.58 -1.43, -27.27 0.08 C-29.97 1.59, -33.04 3.93, -32.71 6.84 C-32.38 9.75, -27.56 14.31, -25.3 17.55 C-23.03 20.79, -21.18 23.55, -19.12 26.28 C-17.06 29.02, -14.3 31.32, -12.94 33.95 C-11.58 36.57, -11.29 40.68, -10.96 42.02 M0 0 C-2.76 -0.37, -12.02 -2.24, -16.56 -2.22 C-21.11 -2.21, -24.58 -1.43, -27.27 0.08 C-29.97 1.59, -33.04 3.93, -32.71 6.84 C-32.38 9.75, -27.56 14.31, -25.3 17.55 C-23.03 20.79, -21.18 23.55, -19.12 26.28 C-17.06 29.02, -14.3 31.32, -12.94 33.95 C-11.58 36.57, -11.29 40.68, -10.96 42.02"
        stroke="#1e1e1e" stroke-width="2" fill="none"></path>
    </g>
  </g>
  <mask></mask>
</svg>